<?xml version="1.0" encoding="utf-8"?>
<!-- Generator: Adobe Illustrator 15.0.0, SVG Export Plug-In . SVG Version: 6.00 Build 0)  -->
<!DOCTYPE svg PUBLIC "-//W3C//DTD SVG 1.0//EN" "http://www.w3.org/TR/2001/REC-SVG-20010904/DTD/svg10.dtd">
<svg version="1.0" id="Layer_1" xmlns="http://www.w3.org/2000/svg" xmlns:xlink="http://www.w3.org/1999/xlink" x="0px" y="0px"
	 width="327.479px" height="257.346px" viewBox="0 0 327.479 257.346" enable-background="new 0 0 327.479 257.346"
	 xml:space="preserve">
<g>
	<path fill-rule="evenodd" clip-rule="evenodd" fill="#234266" d="M86.902,77.476c-0.722,0.086-1.101,0.129-1.144,0.129
		C86.141,77.605,86.523,77.562,86.902,77.476"/>
	<path fill-rule="evenodd" clip-rule="evenodd" fill="#6163A6" d="M108.969,58.347c-2.168-1.359-4.739-1.867-7.719-1.531
		c-2.93,0.383-5.824,0.871-8.668,1.465c-1.402,0.262-2.785,0.449-4.144,0.578c-1.407,0.086-2.723-0.023-3.954-0.316l0.188,0.636
		c0.043,0,0.531,0.336,1.469,1.016c0.554,0.215,1.105,0.469,1.66,0.766c0.929,0.468,1.847,1.003,2.738,1.593l0.066,0.067
		c-0.765-0.684-1.531-1.34-2.296-1.977c-0.809-0.641-1.661-1.172-2.551-1.594c0.976,0.211,1.933,0.571,2.871,1.086
		c0.891,0.508,1.809,1.059,2.738,1.653c1.789,1.234,3.594,2.511,5.422,3.828c1.828,1.402,3.719,2.699,5.68,3.89
		c1.015,0.598,2.035,1.086,3.058,1.469c1.059,0.422,2.016,0.57,2.868,0.442c0.339-0.082,0.636-0.207,0.89-0.383
		c0.133-0.125,0.235-0.274,0.32-0.442c0.555-0.894,0.747-1.726,0.575-2.488c-0.211-0.766-0.742-1.469-1.594-2.105
		c-0.895-0.594-1.852-1.082-2.871-1.465c-2.039-0.809-4.102-1.426-6.184-1.848c-2.082-0.469-4.125-0.851-6.121-1.152
		c1.66-0.086,3.379-0.086,5.164,0c-1.488-0.301-2.933-0.555-4.336-0.762c1.957-0.129,4.039-0.129,6.25,0
		c2.168,0.125,4.399,0.508,6.696,1.146c1.148,0.3,2.273,0.789,3.378,1.464c0.598,0.344,1.126,0.77,1.594,1.278
		c0.086,0.082,0.149,0.172,0.196,0.258c0.125-0.899,0.125-1.723,0-2.493C111.5,60.812,110.371,59.453,108.969,58.347"/>
	<path fill-rule="evenodd" clip-rule="evenodd" fill="#422E73" d="M86.902,89.847c0.684,0.129,1.364,0.317,2.043,0.578
		c-1.105-0.722-2.277-1.238-3.507-1.535c0.769-0.086,1.511-0.039,2.234,0.129c0.766,0.168,1.508,0.383,2.23,0.637
		c1.489,0.508,2.973,1.062,4.465,1.66c1.528,0.637,3.059,1.191,4.594,1.66c0.805,0.254,1.566,0.402,2.289,0.442
		c0.598,0.046,1.066,0,1.406-0.125c0.129-0.215,0.215-0.469,0.254-0.766c0.168-0.723,0.168-1.32,0-1.785
		c-0.168-0.469-0.555-0.852-1.144-1.149c-0.641-0.3-1.34-0.488-2.11-0.574c-1.484-0.215-2.992-0.273-4.523-0.187
		c-1.535,0.039-3.02,0.144-4.465,0.316c0.848-0.383,1.742-0.703,2.676-0.957c-0.637,0.043-1.254,0.105-1.848,0.191
		c1.32-0.593,2.742-1.086,4.274-1.464c1.484-0.43,3.105-0.637,4.843-0.637c0.899,0,1.828,0.168,2.809,0.508
		c0.379,0.129,0.762,0.336,1.148,0.636c-0.047-0.168-0.105-0.32-0.191-0.449c-1.106-1.445-2.426-2.523-3.953-3.246
		c-1.574-0.598-3.293-0.469-5.168,0.379c-1.867,0.894-3.715,1.852-5.543,2.867c-0.899,0.469-1.809,0.871-2.746,1.215
		c-0.723,0.297-1.426,0.488-2.102,0.574c-0.597,0.254-0.894,0.383-0.894,0.383l1.082,0.508
		C85.652,89.613,86.266,89.675,86.902,89.847"/>
	<path fill-rule="evenodd" clip-rule="evenodd" fill="#B3D78A" d="M93.41,105.152c0.684,0.082,1.34,0.211,1.977,0.383
		c-0.426-0.211-0.871-0.383-1.34-0.508h-0.063h0.063c-0.508-0.301-1.02-0.516-1.527-0.641c-0.516-0.129-1.043-0.109-1.594,0.067
		c0.082-0.043,0.168-0.086,0.254-0.129c-0.254,0.086-0.387,0.105-0.387,0.062l1.086,0.446c0.555,0.043,1.082,0.148,1.598,0.32H93.41
		"/>
	<path fill-rule="evenodd" clip-rule="evenodd" fill="#974C8A" d="M94.238,104.386h-0.062c1.656,0.211,3.312,0.641,4.972,1.278
		c1.614,0.593,3.254,1.211,4.914,1.847c1.7,0.637,3.395,1.172,5.102,1.594c1.781,0.469,3.461,0.555,5.035,0.254
		c0.594-0.168,1.145-0.441,1.66-0.824c0.422-0.555,0.528-1.024,0.317-1.407c-0.258-0.593-0.832-1.167-1.723-1.718
		c-0.808-0.512-1.68-0.918-2.617-1.215c-0.891-0.34-1.801-0.508-2.738-0.508c-0.977-0.047-1.957-0.019-2.934,0.063
		c-1.957,0.039-3.762,0.406-5.422,1.082c0.723-0.555,1.531-0.996,2.422-1.336c-0.555,0.125-1.102,0.32-1.652,0.574
		c1.527-1.106,3.293-1.848,5.289-2.231c0.976-0.214,1.976-0.386,3-0.515c1.144-0.125,2.269-0.059,3.375,0.195
		c1.062,0.254,2.129,0.637,3.191,1.145c0.383,0.214,0.742,0.449,1.086,0.703c-0.086-0.254-0.152-0.489-0.195-0.703
		c-1.106-1.743-2.637-2.934-4.59-3.571c-2.211-0.722-4.441-0.761-6.695-0.125l-0.317,0.125l-0.449,0.196l-0.828,0.382
		c-0.598,0.254-1.168,0.528-1.723,0.825c-1.062,0.593-2.168,1.172-3.316,1.726c-1.102,0.551-2.254,0.957-3.445,1.211
		c-0.723,0.168-1.446,0.274-2.165,0.317c-0.468,0.125-0.875,0.234-1.21,0.32l0,0C93.109,104.109,93.684,104.218,94.238,104.386"/>
	<path fill-rule="evenodd" clip-rule="evenodd" fill="#6E2878" d="M125.359,114.019c1.274,0.461,2.532,1.016,3.762,1.652
		c2.504,1.321,5.016,2.786,7.52,4.407c2.511,1.613,4.933,2.972,7.273,4.078c1.148,0.594,2.234,0.828,3.25,0.703
		c0.383-0.047,0.723-0.195,1.02-0.449c0.254-0.297,0.468-0.637,0.64-1.02c0,0.129-0.023,0.254-0.066,0.383
		c0.258-0.809,0.402-1.766,0.449-2.871c-0.852-0.508-1.766-1-2.742-1.465c-5.231-2.254-10.203-4.082-14.926-5.484
		c0.813-0.129,1.641-0.215,2.492-0.254c-0.597-0.176-1.172-0.363-1.722-0.578c2.464-0.34,5.101-0.36,7.906-0.059
		c2.805,0.34,5.652,1.145,8.543,2.422c0.086,0.043,0.148,0.082,0.195,0.129c-0.34-1.789-0.894-3.254-1.66-4.406
		c-0.852-0.637-1.785-1.145-2.805-1.528c-2.593-1.062-5.422-1.531-8.484-1.398c-6.078,0.59-11.563,2.164-16.449,4.715
		c0.851-0.082,1.867,0.172,3.058,0.761c-0.34-0.207-0.699-0.402-1.082-0.57C122.809,113.187,124.082,113.464,125.359,114.019"/>
	<path fill-rule="evenodd" clip-rule="evenodd" fill="#B3D78A" d="M126.438,5.867c-0.04,0-0.059-0.02-0.059-0.063
		C126.379,5.847,126.398,5.867,126.438,5.867"/>
	<path fill-rule="evenodd" clip-rule="evenodd" fill="#B3D78A" d="M127.078,6.441c0.344,0.508,0.598,1.043,0.766,1.594V7.972
		c0.254,0.426,0.468,0.871,0.636,1.34c-0.128-0.641-0.296-1.23-0.507-1.785V7.461c-0.043-0.297-0.11-0.598-0.192-0.891
		c-1.277-0.852-1.933-1.301-1.98-1.34C126.316,5.531,126.738,5.933,127.078,6.441"/>
	<path fill-rule="evenodd" clip-rule="evenodd" fill="#237FBA" d="M128.672,7.207c0.812,1.531,1.449,3.164,1.914,4.91
		c0.512,1.703,1.019,3.441,1.531,5.23c0.508,1.781,1.102,3.528,1.785,5.227c0.684,1.785,1.614,3.297,2.805,4.527
		c0.723,0.684,1.527,1.125,2.426,1.34c0.422,0.129,0.781,0.168,1.082,0.129c0.168-0.637,0.195-1.34,0.062-2.106
		c-0.082-1.023-0.297-2.019-0.636-2.996c-0.168-0.468-0.364-0.918-0.575-1.34c-0.168-0.429-0.402-0.851-0.699-1.273
		c-0.594-0.855-1.191-1.68-1.785-2.488c-1.191-1.66-2.551-3.02-4.086-4.086c1.789,0.722,3.422,1.828,4.914,3.32h-0.066
		c-1.145-1.66-2.485-3.039-4.016-4.144c1.746,0.765,3.36,1.89,4.848,3.375c0.762,0.722,1.484,1.492,2.168,2.296
		c0.383,0.387,0.742,0.833,1.082,1.34c0.297,0.508,0.551,1.024,0.765,1.532c0.508,1.019,0.871,2.125,1.086,3.316
		c0.125,0.594,0.192,1.23,0.192,1.914c0,0.301-0.047,0.594-0.133,0.891c0.555-0.68,1.043-1.528,1.473-2.551
		c0.125-1.359-0.067-2.719-0.575-4.078c-0.851-2.211-2.23-4.106-4.144-5.676c-2.086-1.449-4.254-2.828-6.508-4.145
		c-1.059-0.722-2.043-1.507-2.934-2.359c-0.675-0.641-1.253-1.32-1.718-2.043c-0.086-0.039-0.196-0.105-0.321-0.191
		c0.043,0.047,0.063,0.105,0.063,0.191V7.207"/>
	<path fill-rule="evenodd" clip-rule="evenodd" fill="#B3D78A" d="M148.824,7.207c0.043-0.297,0.062-0.598,0.062-0.895
		c-0.254-0.254-0.469-0.488-0.637-0.699c0.086,0.125,0.168,0.273,0.254,0.445C148.633,6.398,148.738,6.781,148.824,7.207"/>
	<path fill-rule="evenodd" clip-rule="evenodd" fill="#73C563" d="M150.672,19.195c0.082,2.043,0.297,4.058,0.637,6.058
		c0.343,1.997,1.066,3.719,2.171,5.165c0.34,0.425,0.723,0.808,1.145,1.148c0.215,0.129,0.406,0.254,0.574,0.383
		c0.301,0.168,0.555,0.316,0.766,0.449c0.469,0.207,0.847,0.336,1.148,0.375c0.168,0,0.297-0.02,0.383-0.059
		c0.215-0.429,0.383-0.957,0.508-1.593c0.129-1.106,0.129-2.211,0-3.317c-0.039-0.554-0.125-1.086-0.254-1.593l-0.066-0.321
		c-0.039-0.129-0.082-0.254-0.125-0.383l-0.317-0.828c-0.43-1.066-0.871-2.105-1.34-3.125c-0.89-2.039-2.043-3.871-3.441-5.484
		c1.273,0.808,2.418,1.848,3.441,3.125c-0.722-1.445-1.593-2.742-2.617-3.891c1.789,1.192,3.34,2.766,4.66,4.719
		c0.676,0.934,1.313,1.938,1.91,2.996l0.446,0.77c0.086,0.125,0.168,0.273,0.254,0.441c0.086,0.172,0.148,0.32,0.195,0.449
		c0.254,0.637,0.469,1.278,0.637,1.914c0.297,1.274,0.402,2.614,0.32,4.016c0,0.723-0.133,1.469-0.387,2.23
		c-0.211,0.637-0.57,1.278-1.086,1.914c0.813-0.171,1.512-0.445,2.11-0.828c0.804-0.851,1.379-1.808,1.718-2.871
		c0.345-1.187,0.403-2.426,0.196-3.699c-0.469-2.637-1.641-4.992-3.508-7.074c-2.129-2.129-4.254-4.231-6.379-6.317
		c-1.019-1.101-1.91-2.273-2.68-3.507c-0.421-0.723-0.804-1.465-1.144-2.231c-0.301-0.297-0.574-0.594-0.832-0.894
		c0.469,1.875,0.723,3.789,0.765,5.738C150.566,15.07,150.633,17.113,150.672,19.195"/>
	<path fill-rule="evenodd" clip-rule="evenodd" fill="#B3D78A" d="M147.801,5.355c-0.039-0.039-0.059-0.086-0.059-0.125
		C147.742,5.269,147.762,5.316,147.801,5.355"/>
	<path fill-rule="evenodd" clip-rule="evenodd" fill="#B3D78A" d="M175.539,3.382l-0.441-1.976l-0.129-0.641
		c0.043,1.063,0.254,2.149,0.637,3.254C175.566,3.804,175.539,3.593,175.539,3.382"/>
	<path fill-rule="evenodd" clip-rule="evenodd" fill="#97CC63" d="M172.293,4.527c-1.359,1.66-2.617,3.34-3.766,5.039
		c-1.191,1.742-1.68,3.465-1.466,5.164c0.423,1.828,1.255,3.488,2.485,4.973c-0.723-0.379-1.398-0.848-2.039-1.399
		c0.641,0.59,1.445,1.164,2.422,1.719c-0.297-0.555-0.469-1.102-0.508-1.656c-0.086-1.02-0.043-1.957,0.125-2.809
		c0.34-1.738,0.852-3.332,1.527-4.781c0.684-1.445,1.426-2.785,2.234-4.016c-0.086,0.336-0.172,0.657-0.254,0.957
		c0.34-0.593,0.684-1.172,1.02-1.726c-0.422,1.359-0.805,2.812-1.145,4.34c-0.344,1.531-0.578,3.078-0.703,4.652
		c0,0.769,0.066,1.512,0.191,2.234c0.168,0.68,0.445,1.168,0.832,1.469c0.375,0.293,0.953,0.422,1.719,0.379
		c0.336,0,0.637-0.039,0.891-0.125v-0.066c0.172-0.336,0.277-0.786,0.316-1.34c0.086-0.762,0.086-1.574,0-2.422
		c-0.121-1.656-0.336-3.297-0.637-4.91c-0.293-1.66-0.527-3.274-0.695-4.848c-0.262-1.613-0.215-3.144,0.125-4.59l-0.703,0.703
		l-0.254,0.508C173.504,2.828,172.93,3.675,172.293,4.527"/>
	<path fill-rule="evenodd" clip-rule="evenodd" fill="#85CC7D" d="M193.715,5.738c-1.785,1.023-3.547,2.109-5.293,3.254
		c-1.699,1.144-2.719,2.551-3.059,4.211c-0.172,1.484-0.023,2.992,0.445,4.527c0.253,0.34,0.531,0.695,0.832,1.082
		c-0.086-0.641-0.066-1.211,0.059-1.719c0.215-0.984,0.555-1.855,1.02-2.617c0.938-1.488,1.98-2.785,3.125-3.89
		c1.105-1.063,2.258-2.016,3.449-2.868c-0.387,0.465-0.77,0.953-1.152,1.461c0.637-0.508,1.273-0.996,1.914-1.461
		c-0.895,1.145-1.766,2.336-2.617,3.571c-0.848,1.273-1.594,2.636-2.23,4.078c-0.293,0.683-0.488,1.363-0.574,2.043
		c-0.039,0.679,0.086,1.23,0.383,1.656c0.301,0.383,0.809,0.703,1.531,0.957c0.168,0.043,0.34,0.082,0.512,0.129
		c0.086-0.047,0.172-0.066,0.253-0.066c0.384-0.208,0.763-0.657,1.149-1.34c0.297-0.676,0.551-1.418,0.766-2.231
		c0.422-1.57,0.762-3.164,1.02-4.785c0.297-1.613,0.613-3.187,0.957-4.715c0.172-0.762,0.379-1.512,0.641-2.234
		c0.168-0.469,0.375-0.91,0.637-1.34l-1.086,0.516c-0.047,0-0.086,0.019-0.129,0.062C195.457,4.613,194.609,5.187,193.715,5.738"/>
	<path fill-rule="evenodd" clip-rule="evenodd" fill="#B3D78A" d="M197.668,4.781c0.215-0.59,0.488-1.145,0.828-1.656V3
		l-0.762,0.316c-0.173,0.766-0.281,1.551-0.32,2.359C197.5,5.378,197.586,5.082,197.668,4.781"/>
	<path fill-rule="evenodd" clip-rule="evenodd" fill="#FAE654" d="M226.871,26.078c-2.035,0.386-4.06,0.832-6.055,1.34
		c-2,0.515-3.426,1.492-4.27,2.937c-0.43,0.977-0.684,2.016-0.77,3.121c0.047,0.34,0.109,0.703,0.195,1.086
		c0.508-0.805,1.082-1.469,1.719-1.976c1.359-1.106,2.746-1.977,4.145-2.618c1.406-0.675,2.785-1.207,4.145-1.593
		c-0.594,0.386-1.211,0.808-1.848,1.277c1.145-0.555,2.297-0.977,3.441-1.277c-1.191,0.769-2.379,1.593-3.57,2.488
		c-1.23,0.937-2.359,1.957-3.379,3.062c-0.508,0.594-0.891,1.192-1.145,1.786c-0.262,0.597-0.301,1.125-0.129,1.593
		c0.168,0.469,0.551,0.914,1.145,1.34c0.215,0.168,0.43,0.297,0.637,0.383c0.258-0.129,0.512-0.32,0.77-0.574
		c0.508-0.512,1-1.106,1.461-1.785c0.855-1.317,1.66-2.704,2.43-4.149c0.719-1.441,1.484-2.824,2.293-4.144
		c0.379-0.676,0.809-1.313,1.277-1.911c0.422-0.593,0.957-1.109,1.594-1.531c-0.852,1.145-1.469,2.445-1.852,3.891
		c-0.172,0.426-0.32,0.847-0.445,1.277c0.301-0.555,0.637-1.129,1.023-1.726c0.378-0.676,0.805-1.313,1.273-1.911
		c0.125-0.171,0.254-0.32,0.379-0.445l0.578-1.273l0.188-0.578h-0.129c-0.637,0.468-1.359,0.832-2.168,1.085
		C228.871,25.589,227.895,25.871,226.871,26.078"/>
	<path fill-rule="evenodd" clip-rule="evenodd" fill="#C7383A" d="M245.109,103.558c-0.383-0.211-0.742-0.426-1.078-0.64
		c-1.023-0.723-2.043-1.508-3.066-2.356c-1.953-1.742-3.973-3.469-6.059-5.164c-2.121-1.785-4.293-2.656-6.5-2.617
		c-0.723,0.086-1.449,0.297-2.172,0.637c-1.016,0.769-2.039,1.933-3.059,3.507c0.508-0.168,1.02-0.273,1.531-0.32
		c1.188-0.039,2.293,0.086,3.316,0.387c2.082,0.551,3.949,1.293,5.609,2.23c1.742,0.852,3.336,1.809,4.781,2.871
		c-0.336-0.132-0.656-0.254-0.957-0.386c0.598,0.386,1.172,0.769,1.727,1.152c-1.66-0.684-3.383-1.301-5.168-1.852
		c-1.781-0.593-3.637-1.043-5.551-1.336c-0.977-0.128-1.887-0.152-2.738-0.066c-0.938,0.125-1.574,0.445-1.915,0.957
		c-0.335,0.555-0.487,1.297-0.448,2.231c0.047,0.847,0.262,1.531,0.641,2.039c1.148,0.683,2.574,0.98,4.273,0.898
		c1.996-0.086,3.996-0.301,5.992-0.641c2-0.296,3.957-0.55,5.871-0.765c0.59-0.047,1.188-0.086,1.781-0.129l2.68-0.574
		L245.109,103.558"/>
	<path fill-rule="evenodd" clip-rule="evenodd" fill="#FAE654" d="M193.461,62.109c2.465-2.848,4.949-5.527,7.461-8.031
		c-5.906,7.437-11.27,15.875-16.07,25.312c1.234,0.598,2.426,0.977,3.57,1.149c-0.383-0.172-0.723-0.403-1.02-0.7
		c-0.555-0.597-0.977-1.238-1.277-1.914c0.77,0.762,1.617,1.293,2.551,1.594c-0.422-0.512-0.762-1.043-1.02-1.594
		c0.812,0.805,1.703,1.34,2.68,1.594c1.145-0.254,2.148-0.851,3-1.789c1.996-2.293,3.398-5.121,4.203-8.477
		c0.383-1.617,0.664-3.273,0.832-4.972c0.168-1.703,0.422-3.422,0.762-5.168c0.383-1.742,1.023-3.336,1.914-4.781
		c0.938-1.446,2.062-2.532,3.383-3.254c-0.809,0.976-1.426,2.082-1.848,3.316v-0.062c0.637-0.977,1.359-1.789,2.168-2.426
		c0.934-1.445,1.461-2.188,1.594-2.235c-0.809-0.121-1.727-0.168-2.746-0.121c-2.891,0.637-5.883,1.461-8.988,2.485
		c-3.57,1.191-6.973,2.871-10.203,5.035c-1.402,1.066-2.613,2.402-3.637,4.023c-1.02,1.528-1.781,3.141-2.297,4.84
		c-0.551,1.703-0.742,3.403-0.57,5.102c0.082,0.898,0.316,1.769,0.703,2.617c0.934,1.359,1.828,2.445,2.672,3.25
		c5.445-8.84,11.461-16.449,18.051-22.824C197.371,56.668,195.418,59.347,193.461,62.109"/>
	<path fill-rule="evenodd" clip-rule="evenodd" fill="#EB8F3A" d="M225.98,73.461c-3.188-1.403-6.398-2.485-9.629-3.254
		c-0.426-0.082-0.828-0.129-1.211-0.129c-0.383-0.039-0.762-0.059-1.145-0.059c-0.809,0.039-1.598,0.125-2.363,0.254
		c-1.613,0.297-3.078,0.809-4.398,1.527c-1.359,0.723-2.465,1.68-3.316,2.871c-0.172,0.301-0.34,0.594-0.512,0.891
		c-0.422,1.789-0.617,3.359-0.57,4.719c2.25-0.848,4.484-1.551,6.695-2.102c4.887-1.105,9.52-1.679,13.898-1.722
		c-1.145,0.343-2.316,0.679-3.508,1.019c1.445-0.125,2.871-0.207,4.273-0.254c-6.375,1.699-13.09,4.082-20.148,7.145
		c0.469,0.761,0.957,1.445,1.465,2.039c2.172,0.719,4.441,1.086,6.824,1.086c1.32,0.039,2.613-0.086,3.891-0.387
		c0.676-0.129,1.297-0.297,1.848-0.508c0.594-0.258,1.145-0.578,1.66-0.957c1.996-1.656,3.863-3.679,5.609-6.054
		c0.938-1.153,1.996-2.149,3.188-3c1.273-0.891,2.594-1.231,3.957-1.024c-0.852,0.215-1.574,0.621-2.168,1.211
		c0.762-0.336,1.527-0.488,2.293-0.441c1.742-0.77,2.698-1.153,2.867-1.153C232.422,75.394,229.254,74.82,225.98,73.461"/>
	<path fill-rule="evenodd" clip-rule="evenodd" fill="#B3232B" d="M223.242,116.375c0.039,0.128,0.082,0.234,0.121,0.32
		c-1.91-2.383-3.949-4.805-6.117-7.27c-0.344-0.382-0.699-0.742-1.086-1.086c-1.742-1.699-3.719-3.078-5.926-4.144
		c-3.148-1.531-6.316-2.402-9.508-2.613c-1.566-0.082-3.078,0.086-4.523,0.511c-0.98,0.297-1.871,0.766-2.68,1.403
		c-0.422,0.593-0.766,1.191-1.02,1.785c4.207-0.383,8.141,0.019,11.797,1.211c4.078,1.32,7.672,3.019,10.773,5.101
		c-0.293-0.086-0.59-0.172-0.891-0.254c0.555,0.336,1.105,0.7,1.66,1.086c-3.527-1.066-7.312-1.937-11.352-2.617
		c-4.039-0.722-8.184-0.746-12.434-0.066c-0.383,0.086-0.747,0.172-1.086,0.258c-0.215,0.89-0.316,1.742-0.316,2.546
		c0.168-0.335,0.363-0.636,0.57-0.89c-0.207,0.89-0.297,1.808-0.254,2.742c0.254-0.723,0.594-1.383,1.023-1.973
		c-0.387,1.485-0.387,2.887,0,4.203c0.125,0.176,0.234,0.344,0.315,0.512c0.556,0.301,1.169,0.508,1.849,0.641
		c1.406,0.121,2.918,0.039,4.531-0.254c1.574-0.301,3.141-0.75,4.715-1.344c3.445-1.316,6.91-2.082,10.395-2.293
		c1.742-0.086,3.422,0.129,5.039,0.637c1.488,0.422,2.676,1.172,3.57,2.23c0.129,0.086,0.234,0.192,0.316,0.321
		c0.898,0.215,1.359,0.34,1.406,0.383C223.832,117.121,223.539,116.757,223.242,116.375"/>
	<path fill-rule="evenodd" clip-rule="evenodd" fill="#B3D78A" d="M96.789,37.816c-0.086-0.086-0.172-0.195-0.254-0.32
		c-0.555-0.082-0.937-0.149-1.148-0.192C95.688,37.347,96.148,37.519,96.789,37.816"/>
	<path fill-rule="evenodd" clip-rule="evenodd" fill="#B3D78A" d="M95.195,37.238c0,0,0.063,0.027,0.192,0.066
		C95.258,37.265,95.195,37.238,95.195,37.238"/>
	<path fill-rule="evenodd" clip-rule="evenodd" fill="#264591" d="M105.273,44.511c1.313,1.278,2.672,2.489,4.079,3.633
		c1.445,1.234,2.953,2.063,4.527,2.484c0.937,0.262,1.828,0.235,2.676-0.058c0.175-0.086,0.32-0.149,0.449-0.195v-0.254
		c0-0.684-0.301-1.446-0.891-2.297c-0.597-0.848-1.258-1.594-1.98-2.231c-0.723-0.722-1.508-1.297-2.36-1.718
		c-0.933-0.43-1.847-0.832-2.742-1.215c-1.781-0.848-3.609-1.317-5.484-1.403c1.703-0.296,3.469-0.211,5.297,0.254
		c-1.489-0.636-3-1-4.528-1.086c1.911-0.293,3.864-0.168,5.864,0.387c0.98,0.211,1.976,0.512,2.996,0.891
		c1.062,0.343,2.043,0.871,2.937,1.593c0.934,0.637,1.782,1.426,2.551,2.36c0.383,0.469,0.723,1.004,1.02,1.597
		c0.211,0.383,0.378,0.825,0.507,1.34c0.215-0.976,0.215-2,0-3.066c-0.043,0.555-0.148,1.086-0.316,1.594
		c-0.215-2.289-1.191-4.203-2.937-5.739c-1.743-1.566-3.805-2.57-6.18-2.992c-0.555-0.047-1.153-0.086-1.789-0.129h-1.914
		c-1.231,0.043-2.485,0.063-3.762,0.063c-1.145-0.043-2.25-0.168-3.316-0.383c-0.809-0.086-1.551-0.168-2.235-0.254
		c1.32,0.891,2.551,1.914,3.703,3.059C102.723,41.98,103.996,43.238,105.273,44.511"/>
	<path fill-rule="evenodd" clip-rule="evenodd" fill="#B3D78A" d="M116.301,29.398c0.168,0.215,0.34,0.422,0.511,0.637
		c-0.128-0.297-0.277-0.574-0.445-0.828l-0.066-0.063c-0.254-0.683-0.574-1.297-0.957-1.848c-0.207-0.3-0.469-0.578-0.762-0.832
		c0.293,0.637,0.613,1.293,0.957,1.977c0.293,0.34,0.574,0.684,0.828,1.02L116.301,29.398"/>
	<path fill-rule="evenodd" clip-rule="evenodd" fill="#51B3E3" d="M117.07,28.628c1.442,1.622,2.719,3.383,3.825,5.297
		c1.105,1.953,2.21,3.911,3.312,5.864c1.152,2,2.363,3.937,3.637,5.804c1.359,1.914,2.914,3.422,4.652,4.528
		c1.024,0.593,2.09,0.89,3.188,0.89c0.386,0,0.722-0.039,1.023-0.121c0.086-0.344,0.109-0.75,0.066-1.219
		c-0.085-0.55-0.234-1.125-0.449-1.718c-0.379-1.149-0.914-2.274-1.594-3.383c-0.339-0.508-0.679-0.996-1.019-1.461
		c-0.211-0.258-0.402-0.488-0.574-0.703c-0.086-0.086-0.192-0.172-0.321-0.254l-0.32-0.387c-0.93-0.844-1.887-1.676-2.867-2.484
		c-1.828-1.613-3.828-2.848-5.996-3.695c1.66,0.167,3.301,0.675,4.914,1.527c-1.277-1.02-2.66-1.809-4.145-2.36
		c2.336,0.34,4.633,1.192,6.883,2.551c1.106,0.637,2.195,1.34,3.254,2.106l0.449,0.254c0.125,0.125,0.274,0.234,0.442,0.32
		c0.254,0.254,0.515,0.508,0.769,0.762c0.508,0.511,0.996,1.043,1.465,1.593c0.852,1.106,1.594,2.344,2.231,3.704
		c0.253,0.636,0.468,1.312,0.636,2.035c0.43-0.762,0.723-1.528,0.895-2.289c-0.172-1.789-0.785-3.469-1.848-5.043
		c-1.617-2.422-3.762-4.313-6.441-5.676c-0.172-0.039-0.34-0.102-0.512-0.188l-0.57-0.195l-1.086-0.379
		c-0.762-0.297-1.512-0.551-2.235-0.765c-1.527-0.426-3.058-0.891-4.586-1.407c-1.492-0.508-2.894-1.164-4.21-1.972
		c-0.684-0.383-1.293-0.813-1.848-1.274c-0.555-0.301-1.043-0.597-1.469-0.898c0.168,0.215,0.336,0.449,0.512,0.703L117.07,28.628"
		/>
	<path fill-rule="evenodd" clip-rule="evenodd" fill="#3A2E78" d="M129.438,82.257c-1.36-0.761-2.825-1.398-4.399-1.91
		c-1.613-0.554-3.254-0.957-4.91-1.211c-3.191-0.215-6.484,0.02-9.887,0.703c-1.656,0.254-3.293,0.356-4.906,0.317
		c0.34,0.211,0.699,0.426,1.082,0.637c1.359,0.894,2.637,1.933,3.824,3.125c2.383,2.464,4.742,4.933,7.082,7.398
		c0.59,0.594,1.231,1.164,1.91,1.719c0.641,0.597,1.278,1.152,1.914,1.66c1.278,1.066,2.571,1.933,3.891,2.613
		c1.316,0.684,2.656,0.914,4.016,0.703c0.89-0.168,1.722-0.554,2.484-1.152c0.852-1.313,1.453-2.504,1.789-3.566
		c-6.715-3.618-13.051-6.676-19.004-9.184c1.996,0.297,4.039,0.68,6.121,1.148c-2.121-0.937-4.164-1.847-6.121-2.746
		c4.125,0.602,8.438,1.641,12.946,3.129c2.382,0.809,4.765,1.785,7.14,2.93c0.043-0.59,0.043-1.164,0-1.719
		c-0.379-0.68-0.828-1.293-1.336-1.848C132.055,83.937,130.844,83.027,129.438,82.257"/>
	<path fill-rule="evenodd" clip-rule="evenodd" fill="#B3D78A" d="M103.359,80.027c-0.597-0.086-1.152-0.207-1.66-0.383
		c0.852,0.383,1.766,0.957,2.742,1.723c0.297,0.129,0.598,0.254,0.895,0.383C104.699,81.113,104.035,80.539,103.359,80.027"/>
	<path fill-rule="evenodd" clip-rule="evenodd" fill="#2668B0" d="M127.973,63.511c1.953,0.555,3.929,1.278,5.929,2.168
		c-1.445-0.808-2.89-1.527-4.336-2.168c4.973,1.36,9.735,3.742,14.286,7.145c1.527,1.144,3.019,2.441,4.46,3.887
		c-0.082-1.868-0.382-3.528-0.89-4.973c-0.684-0.977-1.488-1.914-2.426-2.805c-1.273-1.191-2.676-2.297-4.211-3.316
		c-1.527-1.063-3.14-1.934-4.84-2.617c-3.574-1.317-7.164-2.082-10.781-2.289c-0.848-0.086-1.68-0.133-2.484-0.133
		c-2.168,0-4.231,0.191-6.184,0.574c0.207-0.125,0.422-0.234,0.637-0.32c-0.129,0-0.258,0.023-0.383,0.066
		c-0.637,0.043-1.254,0.129-1.848,0.254c1.446,0.086,2.719,0.43,3.825,1.019c0.679-0.128,1.359-0.062,2.039,0.192
		c0.722,0.215,1.402,0.555,2.043,1.019c1.23,0.895,2.336,1.934,3.312,3.125c1.02,1.192,1.977,2.446,2.867,3.766
		c0.899,1.359,1.77,2.656,2.617,3.887c0.852,1.152,1.829,2.23,2.934,3.254c1.106,0.976,2.254,1.847,3.441,2.613
		c0.895,0.555,1.79,0.957,2.684,1.211c0.297-0.082,0.551-0.234,0.762-0.442c0.426-0.468,0.765-1.023,1.019-1.66
		c0.047,0.676-0.086,1.379-0.383,2.102v0.066c0.344-0.086,0.665-0.254,0.958-0.508c0.425-0.468,0.746-1.023,0.957-1.66
		c0.082,0.637,0,1.297-0.254,1.977c1.019-0.344,1.89-0.68,2.613-1.02c-1.613-2.129-3.402-4.082-5.356-5.867
		C137.027,68.398,132.691,65.554,127.973,63.511"/>
	<path fill-rule="evenodd" clip-rule="evenodd" fill="#B3D78A" d="M118.789,60.07h0.063c0.046,0.039,0.066,0.066,0.066,0.066
		C118.871,60.089,118.832,60.07,118.789,60.07"/>
	<path fill-rule="evenodd" clip-rule="evenodd" fill="#B3D78A" d="M119.621,60.39c-0.047-0.047-0.086-0.066-0.133-0.066
		C119.535,60.324,119.574,60.343,119.621,60.39"/>
	<path fill-rule="evenodd" clip-rule="evenodd" fill="#459E3F" d="M150.672,43.617c1.148,1.187,2.277,2.445,3.383,3.765
		c-0.598-1.023-1.211-2-1.848-2.933c3.863,3.738,7.305,8.351,10.324,13.832c1.106,2.129,2.129,4.359,3.066,6.695
		c1.441-0.676,2.484-1.719,3.121-3.121c0.383-2.082,0.445-4.187,0.191-6.312c-0.211-1.747-0.809-3.36-1.785-4.848
		c-0.977-1.484-2.25-2.824-3.824-4.016c-3.235-2.254-6.613-4.273-10.141-6.058c-1.703-0.938-3.316-1.957-4.848-3.063
		c-1.148-0.847-2.144-1.785-2.996-2.805h-0.066c0.344,0.68,0.617,1.489,0.832,2.426c0.125,0.293,0.254,0.594,0.383,0.891
		c0.254,0.68,0.465,1.379,0.64,2.101c0.04,0.215,0.083,0.407,0.122,0.575c0.132-1.317,0.046-2.571-0.254-3.762
		c0.468,0.555,0.828,1.172,1.086,1.848c0.253,0.683,0.464,1.386,0.64,2.109c0.336,1.484,0.613,2.992,0.824,4.527
		c0.34,3.106,0.661,6.266,0.957,9.5c0.254,3.313,0.958,6.184,2.102,8.61c0.387,0.675,0.856,1.254,1.406,1.718
		c0.508,0.215,1.043,0.383,1.594,0.512C156.73,65.933,157.75,66,158.641,66c-0.168,0.043-0.336,0.109-0.508,0.191
		c1.023,0.043,2.082,0,3.187-0.129c-0.804-2.551-1.722-5.035-2.738-7.461C156.285,53.074,153.648,48.078,150.672,43.617"/>
	<path fill-rule="evenodd" clip-rule="evenodd" fill="#B3D78A" d="M183.703,18.558c-0.383,0.422-0.766,0.824-1.148,1.211
		c0,0.129-0.02,0.231-0.059,0.317C182.957,19.617,183.367,19.109,183.703,18.558"/>
	<path fill-rule="evenodd" clip-rule="evenodd" fill="#308A3D" d="M179.812,26.019c-1.866,2.293-3.655,4.652-5.354,7.074
		c-1.703,2.465-2.359,4.934-1.977,7.399c0.594,2.465,1.723,4.719,3.379,6.761c0.723,0.465,1.105,0.7,1.148,0.7
		c0.086,0,0.152,0.023,0.191,0.066c-0.211-0.344-0.383-0.664-0.508-0.957c-0.34-0.723-0.555-1.449-0.637-2.172
		c-0.133-1.398-0.066-2.719,0.188-3.949c0.469-2.426,1.191-4.66,2.168-6.695c0.938-2.082,1.957-3.996,3.062-5.743
		c-0.254,0.809-0.488,1.637-0.703,2.489c0.555-1.024,1.129-2,1.727-2.934c-0.641,1.996-1.219,4.059-1.727,6.188
		c-0.508,2.121-0.824,4.312-0.958,6.566c-0.081,1.106-0.019,2.145,0.192,3.121c0.215,1.024,0.617,1.746,1.215,2.172
		c0.555,0.426,1.379,0.613,2.484,0.574c0.301,0,0.574-0.047,0.828-0.129l0.254-0.254c0.469-0.554,0.77-1.406,0.898-2.55
		c0.082-1.063,0.082-2.188,0-3.379c-0.262-2.34-0.578-4.676-0.957-7.016c-0.43-2.297-0.766-4.57-1.023-6.824
		c-0.129-1.106-0.211-2.211-0.254-3.316c-0.043-1.063,0.086-2.102,0.379-3.125c0,1.023,0.133,2.042,0.387,3.066
		c0.082,0.336,0.191,0.656,0.316,0.953c-0.039-0.426-0.062-0.871-0.062-1.34v-0.316c-0.465-2.469-0.699-3.762-0.699-3.891
		c-0.215,1.32-0.703,2.594-1.469,3.824C181.539,23.613,180.707,24.828,179.812,26.019"/>
	<path fill-rule="evenodd" clip-rule="evenodd" fill="#B3D78A" d="M211.445,17.093v0.125c-0.134,1.067-0.195,2.145-0.195,3.25
		c0.129-0.804,0.316-1.613,0.578-2.418c0.168-1.535,0.254-2.316,0.254-2.363c-0.215,0.129-0.402,0.234-0.574,0.32
		C211.465,16.39,211.445,16.75,211.445,17.093"/>
	<path fill-rule="evenodd" clip-rule="evenodd" fill="#FAF597" d="M197.219,36.921c0.133-0.679,0.32-1.363,0.578-2.039
		c0.172-0.3,0.32-0.617,0.445-0.957c0.086-0.168,0.168-0.339,0.254-0.511l0.32-0.379c0.68-1.106,1.402-2.149,2.172-3.129
		c1.527-2.082,3.312-3.676,5.355-4.781c-1.363,1.234-2.488,2.679-3.383,4.336c1.402-1.872,3.062-3.317,4.977-4.336
		c-1.703,1.531-3.086,3.402-4.145,5.613c-0.555,1.062-1.086,2.148-1.594,3.254c-0.133,0.336-0.234,0.613-0.32,0.824
		c-0.086,0.254-0.168,0.535-0.254,0.828c-0.129,0.555-0.234,1.133-0.32,1.723c-0.172,1.23-0.191,2.449-0.062,3.636
		c0.125,1.278,0.441,2.235,0.957,2.872c0.121,0.086,0.23,0.144,0.316,0.187c0.039,0,0.086-0.019,0.125-0.062
		c1.023-0.301,1.895-0.891,2.617-1.786c1.148-1.613,1.93-3.55,2.359-5.804c0.469-2.164,0.789-4.379,0.957-6.629
		c0.254-2.211,0.487-4.399,0.703-6.57c0.207-2.168,0.656-4.25,1.336-6.247l-0.062,0.063c0.043-0.168,0.086-0.34,0.125-0.512
		c-0.039,0.043-0.105,0.082-0.188,0.129c-0.383,0.766-0.871,1.527-1.473,2.297c-0.891,1.191-1.949,2.27-3.188,3.254
		c-1.23,0.976-2.465,1.93-3.695,2.867c-0.594,0.465-1.191,0.957-1.785,1.465c-0.598,0.508-1.129,1.004-1.594,1.465
		c-1.91,2.211-3.082,4.722-3.508,7.527c-0.172,1.231-0.148,2.442,0.062,3.633c0.469,0.937,0.938,1.66,1.402,2.172v-0.129
		C196.668,39.703,196.844,38.281,197.219,36.921"/>
	<path fill-rule="evenodd" clip-rule="evenodd" fill="#EB8F3A" d="M230.574,47.953c-3.062-0.637-6.078-1.188-9.059-1.657
		c-2.848-0.214-5.457,0.422-7.84,1.911c-1.152,0.722-2.109,1.64-2.871,2.742c-0.723,1.066-1.188,2.277-1.402,3.637
		c-0.043-0.086-0.066-0.168-0.066-0.254c-0.039,0.55-0.059,0.847-0.059,0.89c0,0.215,0.02,0.403,0.059,0.574
		c0.086-0.171,0.195-0.339,0.32-0.507c0.469-0.723,0.98-1.321,1.535-1.789c1.059-1.016,2.207-1.829,3.441-2.422
		c0.637-0.297,1.273-0.575,1.914-0.828c0.336-0.082,0.676-0.172,1.02-0.258c0.379-0.039,0.723-0.086,1.016-0.125
		c1.234-0.168,2.465-0.278,3.703-0.317c2.504-0.132,4.82,0.231,6.949,1.078c-0.891-0.167-1.809-0.207-2.742-0.125
		c1.23,0.125,2.402,0.426,3.508,0.895c-2.172-0.301-4.422-0.172-6.758,0.383c-1.152,0.254-2.297,0.551-3.445,0.89
		c-0.344,0.086-0.617,0.172-0.832,0.254c-0.254,0.086-0.508,0.196-0.762,0.321c-0.512,0.254-1,0.531-1.469,0.832
		c-1.02,0.675-1.914,1.445-2.676,2.289c-0.812,0.898-1.234,1.726-1.273,2.492c0,0.254,0.059,0.488,0.188,0.699
		c0.086,0.082,0.168,0.149,0.254,0.192c0.129,0.086,0.234,0.152,0.32,0.191c0.168,0.086,0.316,0.168,0.449,0.254
		c0.207,0.086,0.441,0.176,0.699,0.258c0.508,0.172,1.043,0.254,1.594,0.254c1.871,0,3.781-0.551,5.742-1.657
		c1.867-1.023,3.676-2.187,5.418-3.507c1.738-1.278,3.484-2.532,5.227-3.762c1.703-1.32,3.508-2.383,5.422-3.188l-0.125,0.063
		c0.125-0.043,0.234-0.082,0.316-0.129c-0.465-0.168-0.914-0.32-1.34-0.449c-0.598,0.086-1.188,0.152-1.789,0.195
		C233.633,48.359,232.102,48.253,230.574,47.953"/>
	<path fill-rule="evenodd" clip-rule="evenodd" fill="#B3D78A" d="M255.188,79.644c-0.211-0.086-0.445-0.191-0.699-0.32h-0.195
		C254.59,79.453,254.891,79.558,255.188,79.644"/>
	<path fill-rule="evenodd" clip-rule="evenodd" fill="#F8B851" d="M251.871,61.027c-1.145-0.129-2.316-0.363-3.508-0.703
		c-2.297-0.809-4.566-1.551-6.824-2.231c-3.105-0.636-5.824-0.047-8.16,1.782c-1.023,1.535-1.531,2.578-1.531,3.128
		c0.211-0.214,0.445-0.402,0.703-0.578c0.934-0.636,1.914-1.125,2.93-1.464c0.512-0.168,1.043-0.297,1.594-0.383
		c0.555-0.125,1.086-0.168,1.594-0.125c0.984,0,1.938,0.039,2.871,0.125c1.957,0.172,3.699,0.683,5.23,1.531
		c-0.852-0.254-1.723-0.406-2.617-0.445c1.238,0.254,2.383,0.66,3.445,1.211c-1.699-0.422-3.465-0.551-5.293-0.383
		c-0.891,0.086-1.809,0.195-2.738,0.316c-0.512,0.047-0.957,0.133-1.34,0.258c-0.383,0.129-0.789,0.277-1.211,0.445
		c-0.852,0.426-1.621,0.914-2.297,1.465c-0.723,0.641-1.152,1.238-1.277,1.789c-0.082,0.254-0.02,0.528,0.191,0.828
		c0.637,0.469,1.34,0.785,2.105,0.957c1.484,0.168,3.039-0.066,4.656-0.703c1.527-0.594,3.039-1.297,4.527-2.101
		c1.484-0.809,2.953-1.594,4.398-2.364c1.445-0.847,2.953-1.484,4.527-1.914l-0.062,0.067c0.383-0.168,0.785-0.321,1.211-0.442
		c-0.086-0.047-0.191-0.113-0.32-0.195C253.785,61.066,252.848,61.113,251.871,61.027"/>
	<path fill-rule="evenodd" clip-rule="evenodd" fill="#B3D78A" d="M255.441,81.238l-0.062,0.066
		c-0.508,0.211-1.023,0.489-1.531,0.832c0.68-0.3,1.383-0.535,2.102-0.703h-0.062c0.43-0.215,0.895-0.363,1.406-0.449
		c0.168-0.086,0.254-0.125,0.254-0.125c-0.254-0.129-0.508-0.258-0.766-0.383h-0.062C256.289,80.683,255.867,80.945,255.441,81.238"
		/>
	<path fill-rule="evenodd" clip-rule="evenodd" fill="#D46B6B" d="M239.82,80.601c0.508,0.172,1.02,0.363,1.527,0.578
		c0.215,0.125,0.469,0.274,0.77,0.442l0.574,0.449c0.844,0.555,1.633,1.144,2.355,1.785c0.598,0.512,1.148,1.039,1.656,1.594
		c1.191,1.019,2.129,2.164,2.805,3.441c-0.293-0.293-0.57-0.594-0.824-0.89v0.062l-0.254-0.254
		c-0.977-0.851-2.062-1.613-3.254-2.297c-0.766-0.468-1.594-0.91-2.484-1.34l-0.641-0.316c-0.215-0.086-0.426-0.172-0.637-0.258
		c-0.383-0.129-0.809-0.23-1.273-0.316c-0.938-0.215-1.875-0.301-2.805-0.254c-1.024,0.039-1.746,0.254-2.176,0.637
		c-0.168,0.168-0.254,0.382-0.254,0.636s0.066,0.594,0.195,1.024l0.059,0.187l0.066,0.129c0.085,0.125,0.148,0.235,0.195,0.321
		c0.082,0.167,0.188,0.359,0.316,0.574c0.086,0.125,0.211,0.273,0.379,0.441c1.152,0.899,2.492,1.535,4.023,1.914
		c1.656,0.469,3.336,0.813,5.035,1.02c1.742,0.215,3.441,0.429,5.102,0.64c1.699,0.211,3.316,0.598,4.848,1.149h-0.066
		c0.086,0,0.172,0.019,0.254,0.062c-0.297-0.554-0.57-1.101-0.824-1.656c-0.77-0.551-1.473-1.172-2.109-1.852
		c-0.555-0.507-1.082-1.062-1.594-1.656c-1.445-1.828-2.91-3.636-4.398-5.418c-1.531-1.406-3.254-2.363-5.168-2.871
		c-1.102-0.215-2.164-0.234-3.188-0.062c-0.293,0.039-0.574,0.121-0.828,0.254c-0.766,0.421-1.145,0.679-1.145,0.765
		c-0.258,0.254-0.492,0.528-0.703,0.828c0.383-0.047,0.762-0.066,1.148-0.066C237.691,80.074,238.797,80.261,239.82,80.601"/>
	<path fill-rule="evenodd" clip-rule="evenodd" fill="#B3D78A" d="M257.102,112.293h-0.129c-0.383-0.082-0.809-0.149-1.277-0.188
		c1.062,0.254,1.617,0.379,1.66,0.379c-0.043-0.039-0.086-0.106-0.129-0.191h-0.188H257.102"/>
	<path fill-rule="evenodd" clip-rule="evenodd" fill="#234266" d="M204.047,84.367c7.059-3.106,13.773-5.485,20.148-7.145
		c-1.402,0.047-2.828,0.129-4.273,0.254c-3.102,0.215-6.312,0.703-9.629,1.469c-4.926,1.148-9.82,3.078-14.668,5.801
		c-4.84,2.808-8.926,6.187-12.238,10.14c-2.082,2.508-3.742,5.121-4.977,7.844c-0.68,1.527-1.211,3.059-1.594,4.594
		c1.02-1.914,2.254-3.766,3.699-5.551c1.445-1.785,3.039-3.488,4.785-5.102c3.484-3.316,7.5-6.273,12.051-8.863
		C199.562,86.535,201.793,85.382,204.047,84.367"/>
	<path fill-rule="evenodd" clip-rule="evenodd" fill="#234266" d="M179.305,112.867c-1.957,2.082-3.422,4.34-4.402,6.761
		c-0.555,1.274-0.957,2.551-1.211,3.825c1.789-3.274,4.23-6.188,7.332-8.739c2.852-2.25,6.168-3.824,9.949-4.714
		c0.339-0.086,0.703-0.172,1.086-0.258c4.25-0.637,8.395-0.617,12.434,0.066c4.039,0.68,7.824,1.551,11.352,2.617
		c-0.555-0.343-1.105-0.683-1.66-1.023c-2.676-1.66-5.719-3.02-9.117-4.078c-4.164-1.406-8.719-1.746-13.645-1.024
		c-2.383,0.469-4.637,1.258-6.762,2.356C182.617,109.847,180.836,111.253,179.305,112.867"/>
	<path fill-rule="evenodd" clip-rule="evenodd" fill="#234266" d="M167.953,103.238c0.43-2.637,0.723-5.356,0.891-8.16
		c0.383-6.207-0.086-12.649-1.398-19.321c-1.359-6.675-3.527-12.777-6.507-18.3c-2.036-3.782-4.333-7.164-6.883-10.141
		c-1.106-1.32-2.235-2.551-3.383-3.699c2.976,4.461,5.633,9.457,7.969,14.984c0.98,2.379,1.875,4.867,2.679,7.461
		c1.063,3.32,1.981,6.781,2.742,10.395c1.235,6.375,1.978,12.582,2.231,18.621c0.258,6.039,0.129,11.711-0.379,17.027
		C166.809,109.296,167.484,106.339,167.953,103.238"/>
	<path fill-rule="evenodd" clip-rule="evenodd" fill="#234266" d="M138.938,96.605c4.21,2.684,7.953,5.617,11.226,8.805
		c1.613,1.613,3.059,3.293,4.332,5.035c1.32,1.699,2.383,3.508,3.188,5.422c-0.082-1.024-0.293-2.043-0.637-3.063
		c-0.34-1.062-0.762-2.105-1.274-3.125c-0.976-2.082-2.207-4.082-3.699-5.992c-3.019-3.828-6.758-7.164-11.222-10.016
		c-4.465-2.804-8.969-4.949-13.516-6.437c-2.34-0.809-4.613-1.469-6.824-1.977c-2.129-0.468-4.164-0.851-6.125-1.148
		c5.953,2.508,12.265,5.566,18.941,9.184C135.195,94.308,137.07,95.418,138.938,96.605"/>
	<path fill-rule="evenodd" clip-rule="evenodd" fill="#234266" d="M158.582,129.004c-0.086-0.898-0.301-1.809-0.637-2.747
		c-0.597-1.574-1.511-3.078-2.746-4.527c-1.914-2.254-4.312-4.059-7.203-5.422c-2.891-1.273-5.758-2.082-8.609-2.418
		c-1.871-0.215-3.657-0.254-5.355-0.133c-0.851,0.047-1.679,0.11-2.492,0.196c4.723,1.445,9.695,3.293,14.926,5.547
		c0.976,0.425,1.914,0.894,2.805,1.402c1.484,0.851,2.871,1.746,4.144,2.68C155.539,125.152,157.262,126.961,158.582,129.004"/>
	<path fill-rule="evenodd" clip-rule="evenodd" fill="#234266" d="M145.25,34.753c0.852,0.977,1.855,1.891,3,2.743
		c1.527,1.101,3.168,2.125,4.91,3.062c3.485,1.781,6.84,3.805,10.074,6.055c1.614,1.191,2.915,2.531,3.891,4.015
		c0.937,1.493,1.531,3.129,1.785,4.915c0.215,2.082,0.129,4.164-0.254,6.246c-0.254,1.449-0.555,2.851-0.895,4.211
		c0.938-1.446,1.766-3.039,2.488-4.786l0.254-0.761c0.598-1.575,0.914-3.274,0.957-5.102c0.082-2.172-0.426-4.293-1.531-6.375
		c-1.191-2.043-2.699-3.742-4.527-5.101c-1.316-0.981-2.675-1.829-4.083-2.551c-2.418-1.235-4.781-2.258-7.078-3.063
		c-1.828-0.679-3.57-1.363-5.226-2.039c-0.297-0.129-0.598-0.258-0.895-0.383c-0.594-0.3-1.168-0.597-1.719-0.89
		c-0.683-0.387-1.32-0.813-1.914-1.278C144.699,34.05,144.957,34.414,145.25,34.753"/>
	<path fill-rule="evenodd" clip-rule="evenodd" fill="#234266" d="M153.352,66.832c1.019,0.082,2.125,0,3.316-0.262
		c0.555-0.082,1.043-0.207,1.465-0.379c0.172-0.043,0.34-0.109,0.508-0.191c-0.891,0.043-1.911-0.02-3.059-0.192
		c-0.469-0.043-0.891-0.129-1.273-0.254c-0.215-0.043-0.407-0.109-0.575-0.195c-1.191-0.551-2.105-1.398-2.746-2.551
		c-1.101-2.465-1.781-5.332-2.035-8.605c-0.34-3.274-0.683-6.442-1.023-9.5c-0.168-1.364-0.403-2.684-0.703-3.957
		c-0.039-0.168-0.082-0.36-0.122-0.575c-0.175-0.722-0.386-1.421-0.64-2.101c-0.129-0.297-0.258-0.598-0.383-0.891
		c-0.168-0.343-0.383-0.664-0.637-0.957c0.297,1.317,0.36,2.676,0.188,4.082l-0.254,4.461c-0.254,3.106-0.234,6.379,0.066,9.821
		c0.168,1.699,0.508,3.402,1.02,5.101c0.508,1.66,1.316,3.188,2.422,4.594c0.89,1.058,1.976,1.801,3.254,2.23
		C152.523,66.679,152.926,66.785,153.352,66.832"/>
	<path fill-rule="evenodd" clip-rule="evenodd" fill="#234266" d="M180.77,61.093c1.023-1.621,2.234-2.957,3.637-4.023
		c3.23-2.164,6.633-3.844,10.203-5.035c3.059-1.063,6.059-1.895,8.988-2.485c0.43-0.086,0.871-0.172,1.34-0.257
		c-1.785-0.258-3.656-0.364-5.609-0.317c-1.742,0.086-3.527,0.274-5.355,0.574c-3.957,0.637-7.828,2.184-11.609,4.653
		c-1.957,1.527-3.422,3.254-4.398,5.164c-1.02,1.957-1.703,3.957-2.043,5.992c-0.254,1.914-0.121,3.742,0.387,5.488
		c0.043,0.168,0.082,0.336,0.129,0.508c0.723,1.871,1.801,3.297,3.246,4.273c-0.422-0.636-0.781-1.32-1.078-2.042
		c-0.387-0.809-0.621-1.68-0.703-2.61c-0.172-1.66,0.02-3.34,0.57-5.043C178.988,64.234,179.75,62.621,180.77,61.093"/>
	<path fill-rule="evenodd" clip-rule="evenodd" fill="#234266" d="M199.965,64.281c-0.168,1.699-0.449,3.355-0.832,4.972
		c-0.805,3.356-2.207,6.161-4.203,8.418c-1.023,1.102-2.191,1.739-3.508,1.915c-0.383,0-0.746-0.047-1.086-0.133
		c-0.977-0.254-1.867-0.766-2.68-1.528c0.258,0.508,0.598,1.02,1.02,1.528c0.086,0.133,0.195,0.234,0.32,0.32
		c0.598,0.637,1.34,1.063,2.23,1.277c0.129,0,0.254,0.02,0.383,0.063c0.809,0.086,1.617,0.019,2.422-0.195
		c0.938-0.293,1.789-0.723,2.551-1.274c1.535-1.144,2.785-2.551,3.766-4.207c0.934-1.656,1.656-3.445,2.168-5.359
		c0.426-1.914,0.66-3.782,0.703-5.61c0-1.742,0.02-3.422,0.059-5.035c0.047-1.574,0.262-3.086,0.641-4.527
		c0.426-1.406,1.105-2.703,2.039-3.895c-0.422,0.258-0.824,0.555-1.207,0.895c-0.809,0.637-1.531,1.426-2.168,2.359v0.067
		c-0.898,1.484-1.512,3.078-1.855,4.781C200.391,60.812,200.137,62.535,199.965,64.281"/>
	<path fill-rule="evenodd" clip-rule="evenodd" fill="#234266" d="M235.48,75.121c-0.723-0.176-1.419-0.403-2.102-0.703
		c-2.082-0.891-4.191-2.024-6.312-3.383c-1.445-0.848-3-1.68-4.656-2.485c-1.656-0.847-3.484-1.464-5.48-1.847
		c-0.516-0.086-1.023-0.153-1.535-0.192c-0.555,0-1.083,0.02-1.594,0.059c-1.016,0.047-2,0.215-2.93,0.516
		c-1.914,0.507-3.617,1.359-5.102,2.55c-1.535,1.192-2.594,2.653-3.188,4.399c-0.176,0.551-0.281,1.105-0.32,1.66
		c-0.043,1.144,0.105,2.183,0.445,3.121c0-1.145,0.234-2.23,0.699-3.254c0.172-0.336,0.34-0.637,0.512-0.891
		c0.809-1.23,1.91-2.21,3.316-2.933c1.32-0.68,2.785-1.168,4.398-1.465c0.766-0.168,1.555-0.277,2.363-0.32
		c0.383,0,0.762,0.019,1.145,0.066c0.383,0.039,0.785,0.086,1.211,0.125c3.23,0.766,6.441,1.848,9.629,3.254
		C229.215,74.757,232.379,75.328,235.48,75.121"/>
	<path fill-rule="evenodd" clip-rule="evenodd" fill="#234266" d="M217.5,91.121c0.848-0.082,1.699-0.274,2.551-0.571
		c0.848-0.3,1.66-0.722,2.422-1.277c1.445-1.062,2.617-2.27,3.508-3.633c0.852-1.32,1.594-2.594,2.23-3.824
		c0.641-1.277,1.32-2.406,2.043-3.383c0.762-1.062,1.746-1.765,2.934-2.101c-0.211-0.047-0.426-0.067-0.637-0.067
		c-0.766,0-1.508,0.172-2.23,0.508c-0.383,0.129-0.723,0.32-1.023,0.578c-1.188,0.848-2.25,1.848-3.188,2.996
		c-1.742,2.379-3.637,4.399-5.672,6.059c-0.469,0.383-1.023,0.68-1.66,0.89c-0.555,0.258-1.152,0.45-1.789,0.579
		c-1.273,0.293-2.59,0.421-3.949,0.378c-2.598,0-5.062-0.445-7.398-1.335h-0.191c1.828,1.867,4.25,3.164,7.27,3.886
		C214.25,91.187,215.844,91.296,217.5,91.121"/>
	<path fill-rule="evenodd" clip-rule="evenodd" fill="#234266" d="M149.016,75.437c0-0.043,0.019-0.082,0.062-0.129
		c0.68-1.445,0.832-3.039,0.445-4.781v-0.254c-0.507-1.875-1.359-3.594-2.55-5.168c-1.231-1.613-2.653-3.059-4.274-4.332
		c-1.613-1.277-3.441-2.344-5.48-3.187c-2.934-1.106-5.848-1.68-8.739-1.727c-1.144,0-2.273,0.047-3.375,0.133
		c-3.91,0.293-7.316,1.293-10.203,2.992c0.594-0.086,1.211-0.168,1.848-0.254c0.125-0.043,0.273-0.066,0.441-0.066
		c1.789-0.207,3.618-0.297,5.489-0.254c0.804,0.047,1.636,0.086,2.484,0.133c3.617,0.207,7.207,0.972,10.781,2.289
		c1.7,0.683,3.313,1.554,4.84,2.617c1.535,1.019,2.938,2.125,4.211,3.316c0.938,0.891,1.742,1.828,2.426,2.805
		c0.254,0.383,0.488,0.769,0.699,1.144c0.766,1.454,1.067,2.957,0.895,4.532V75.437"/>
	<path fill-rule="evenodd" clip-rule="evenodd" fill="#234266" d="M141.363,78.628c-0.211,0.208-0.468,0.36-0.765,0.442
		c-0.215,0.086-0.469,0.129-0.766,0.129c-1.148-0.129-2.316-0.571-3.508-1.34c-1.148-0.766-2.273-1.637-3.379-2.613
		c-1.105-1.024-2.101-2.102-3-3.254c-0.804-1.231-1.652-2.528-2.55-3.887c-0.891-1.32-1.848-2.574-2.868-3.766
		c-1.015-1.191-2.148-2.23-3.379-3.125c-0.468-0.336-0.976-0.617-1.527-0.824c-0.086-0.047-0.152-0.066-0.195-0.066
		c-0.086-0.043-0.172-0.086-0.254-0.129c-0.086-0.039-0.172-0.059-0.254-0.059c0,0-0.02-0.027-0.066-0.066
		c-0.637-0.129-1.231-0.149-1.782-0.067c1.274,0.387,2.293,1.149,3.059,2.297c0.805,1.063,1.574,2.235,2.297,3.508
		c0.679,1.317,1.402,2.656,2.164,4.016c0.722,1.359,1.574,2.765,2.551,4.211c1.152,1.488,2.402,2.718,3.761,3.695
		c1.36,1.023,2.809,1.828,4.34,2.426c0.762,0.301,1.551,0.508,2.356,0.637c0.597,0.085,1.191,0.085,1.789,0
		c0.211-0.043,0.468-0.082,0.761-0.129c0.852-0.297,1.469-0.805,1.856-1.528V79.07c0.336-0.723,0.461-1.426,0.379-2.102
		C142.172,77.605,141.828,78.16,141.363,78.628"/>
	<path fill-rule="evenodd" clip-rule="evenodd" fill="#234266" d="M103.359,79.961c0.594,0.132,1.211,0.214,1.848,0.261
		c0.086-0.047,0.148-0.047,0.188,0c1.621,0,3.234-0.109,4.847-0.32c3.446-0.723,6.762-0.981,9.949-0.766
		c1.661,0.297,3.274,0.703,4.848,1.211c1.613,0.551,3.106,1.192,4.465,1.91c1.398,0.77,2.613,1.68,3.633,2.746
		c0.511,0.555,0.953,1.168,1.34,1.848c0.335,0.641,0.597,1.297,0.765,1.981c0.211-1.536-0.086-3.086-0.89-4.661
		c-0.813-1.527-1.938-2.867-3.383-4.015c-1.403-1.149-2.977-2.082-4.719-2.805c-1.742-0.765-3.594-1.32-5.551-1.656
		c-2.082-0.215-4.035-0.133-5.863,0.254c-1.828,0.422-3.527,0.89-5.102,1.402c-3.148,1.192-6.187,1.805-9.121,1.848
		c0.344,0.172,0.703,0.32,1.086,0.445C102.254,79.773,102.805,79.878,103.359,79.961"/>
	<path fill-rule="evenodd" clip-rule="evenodd" fill="#234266" d="M129.629,101.007c1.531-0.894,2.594-2.039,3.187-3.445
		c-1.015,0.938-2.168,1.594-3.441,1.981c-0.086,0.043-0.172,0.062-0.254,0.062c-1.363,0.254-2.703,0.02-4.016-0.703
		c-1.32-0.68-2.617-1.547-3.89-2.613c-0.641-0.508-1.277-1.043-1.914-1.594c-0.684-0.594-1.321-1.168-1.914-1.719
		c-2.379-2.469-4.742-4.957-7.078-7.465c-1.192-1.191-2.489-2.23-3.891-3.121c-0.34-0.215-0.703-0.429-1.082-0.64
		c-0.297-0.129-0.598-0.254-0.895-0.383c-0.808-0.297-1.597-0.489-2.359-0.574c2.469,1.488,4.57,3.632,6.313,6.441
		c1.746,2.723,3.929,5.461,6.566,8.227c0.723,0.679,1.426,1.296,2.109,1.847c0.719,0.555,1.461,1.086,2.231,1.594
		c1.484,1.062,3.125,1.871,4.906,2.422C126.082,101.921,127.891,101.816,129.629,101.007"/>
	<path fill-rule="evenodd" clip-rule="evenodd" fill="#234266" d="M216.547,104.324c-1.363-1.321-2.957-2.422-4.785-3.317
		c-3.656-1.742-7.379-2.402-11.16-1.976c-1.828,0.211-3.484,0.785-4.977,1.719c-0.461,0.3-0.871,0.621-1.211,0.957
		c-0.891,0.808-1.547,1.707-1.977,2.679c0.344-0.336,0.703-0.636,1.086-0.89c0.809-0.637,1.723-1.106,2.742-1.403
		c1.402-0.425,2.895-0.593,4.461-0.511c3.191,0.211,6.359,1.082,9.508,2.613c2.207,1.066,4.203,2.445,5.992,4.144
		c0.637,0.598,1.23,1.215,1.781,1.852c1.875,2.082,3.617,4.145,5.234,6.184c0.297,0.382,0.59,0.746,0.891,1.086
		c-0.891-2.852-2.254-5.805-4.082-8.864C219.117,107.109,217.945,105.683,216.547,104.324"/>
	<path fill-rule="evenodd" clip-rule="evenodd" fill="#234266" d="M222.348,116.757c-0.766-0.636-1.676-1.125-2.742-1.464
		c-1.574-0.469-3.254-0.661-5.039-0.579c-3.488,0.176-6.949,0.938-10.391,2.297c-1.574,0.598-3.148,1.043-4.723,1.34
		c-1.613,0.301-3.125,0.363-4.523,0.192c-1.152-0.125-2.023-0.594-2.618-1.403c-0.128-0.129-0.233-0.297-0.315-0.512
		c-0.387-1.316-0.387-2.718,0-4.203c-0.43,0.59-0.789,1.25-1.086,1.973v0.063c-0.301,0.722-0.426,1.554-0.387,2.488
		c0.086,0.765,0.406,1.508,0.957,2.23c0.086,0.129,0.195,0.258,0.32,0.383c0.723,0.723,1.555,1.211,2.492,1.469
		c1.867,0.555,3.715,0.722,5.543,0.508c1.914-0.168,3.762-0.59,5.551-1.274c3.273-1.273,6.441-2.277,9.5-3
		c1.527-0.336,3.02-0.508,4.465-0.508c1.488,0,2.867,0.383,4.145,1.145c-0.215-0.293-0.469-0.57-0.77-0.824
		C222.602,116.992,222.473,116.886,222.348,116.757"/>
	<path fill-rule="evenodd" clip-rule="evenodd" fill="#234266" d="M144.488,109.613c1.02,0.43,1.953,0.957,2.805,1.594
		c0.215,0.132,0.422,0.3,0.637,0.515c1.023,0.848,1.64,1.934,1.847,3.254c0.301-0.937,0.254-1.961-0.121-3.066
		c-0.176-0.383-0.367-0.762-0.578-1.145c-0.848-1.359-1.973-2.484-3.379-3.383c-2.851-1.867-6.101-2.738-9.754-2.609
		c-3.617,0.207-6.824,1.125-9.629,2.738c-1.961,1.106-3.66,2.364-5.101,3.762c-0.598,0.555-1.153,1.125-1.66,1.723
		c4.886-2.594,10.371-4.164,16.449-4.715C139.066,108.148,141.895,108.597,144.488,109.613"/>
	<path fill-rule="evenodd" clip-rule="evenodd" fill="#234266" d="M146.402,125.621c-1.023,0.129-2.129-0.086-3.32-0.637
		c-2.297-1.106-4.695-2.488-7.203-4.145c-2.512-1.574-5.016-3.019-7.527-4.336c-1.274-0.636-2.524-1.21-3.762-1.722
		c-0.336-0.086-0.676-0.192-1.02-0.32c-0.933-0.336-1.867-0.508-2.804-0.508c1.066,0.554,2.082,1.258,3.062,2.101l3.125,2.617
		c2.121,1.782,4.485,3.508,7.078,5.165c2.59,1.699,5.375,2.91,8.352,3.632c0.719,0.129,1.488,0.196,2.293,0.196
		c0.808-0.047,1.574-0.254,2.297-0.637c0.468-0.301,0.828-0.641,1.086-1.024c0.171-0.214,0.296-0.449,0.379-0.703
		c0.214-0.468,0.32-0.933,0.32-1.398v-0.129c0.043-0.129,0.066-0.254,0.066-0.383c-0.172,0.383-0.386,0.723-0.64,1.02
		C147.715,125.093,147.125,125.496,146.402,125.621"/>
	<path fill-rule="evenodd" clip-rule="evenodd" fill="#23304F" d="M170.758,126.324c0.297-2.805,0.746-5.61,1.34-8.422
		c2.34-12.75,6.059-24.524,11.16-35.324c0.512-1.063,1.02-2.121,1.527-3.188c4.848-9.437,10.23-17.875,16.137-25.312
		c-2.551,2.465-5.035,5.14-7.461,8.031c-4.805,5.613-9.164,11.945-13.074,19.004c-5.949,10.797-10.156,22.808-12.625,36.027
		c-0.465,2.723-0.852,5.313-1.148,7.778c-0.086-0.379-0.145-0.743-0.191-1.082c-1.23-6.844-2.996-14.793-5.289-23.848
		c-1.66-5.996-4.125-11.52-7.399-16.578c-3.187-5.102-7.035-9.375-11.543-12.817c-2.679-2-5.464-3.636-8.355-4.914
		c-1.953-0.89-3.93-1.633-5.926-2.23c4.715,2.082,9.074,4.949,13.07,8.609c1.915,1.785,3.696,3.738,5.356,5.867
		c1.699,2.211,3.234,4.567,4.594,7.078c5.187,10.118,8.226,21.403,9.117,33.856c0.508,6,0.637,11.441,0.383,16.328
		c-0.254,4.848-0.766,10.012-1.528,15.496c-0.812,5.656-1.875,11.094-3.191,16.32c-0.68,2.598-1.469,5.102-2.359,7.527
		c-0.809,2.469-1.848,4.805-3.125,7.016c0.679-0.891,1.316-1.809,1.914-2.746c-1.192,1.914-1.829,2.832-1.914,2.746
		c5.695,1.105,9.457,0.809,11.285-0.891c1.828-1.703,2.68-2.727,2.55-3.066c0.345-1.312,0.724-2.652,1.149-4.016
		c0.211,2.383,0.555,4.59,1.023,6.633c-0.176,0.254,0.34,1.086,1.527,2.484c1.191,1.445,3.996,2.062,8.414,1.848
		c-0.121,0.047-0.91-1.676-2.355-5.16c0.848,1.785,1.637,3.508,2.355,5.16c-0.336-1.23-0.953-3.695-1.848-7.391
		c2.297,2.93,5.824,4.078,10.586,3.441c-6.676-10.371-10.82-20.809-12.434-31.309C170.906,138.777,170.332,131.125,170.758,126.324"
		/>
	<path fill-rule="evenodd" clip-rule="evenodd" fill="#234266" d="M119.875,30.164c1.32,0.808,2.738,1.464,4.273,1.972
		c1.528,0.516,3.04,0.981,4.524,1.407c0.766,0.214,1.535,0.449,2.297,0.703l1.086,0.441l0.57,0.195
		c0.172,0.039,0.34,0.106,0.512,0.188c2.679,1.32,4.824,3.211,6.441,5.676c1.02,1.535,1.637,3.215,1.848,5.043
		c0.082,0.89,0.043,1.8-0.125,2.738c0.383-0.508,0.703-1.125,0.957-1.848c0.254-0.722,0.402-1.488,0.441-2.297
		c0.086-1.613-0.188-3.234-0.828-4.847c-0.68-1.574-1.637-3.02-2.867-4.332c-1.192-1.364-2.68-2.469-4.465-3.321
		c-3.441-1.23-6.695-1.976-9.754-2.23c-1.488-0.211-2.933-0.488-4.34-0.828c-0.34-0.086-0.675-0.196-1.019-0.321
		c-1.016-0.296-2-0.636-2.93-1.019c0.461,0.508,0.996,0.977,1.594,1.406C118.645,29.351,119.234,29.781,119.875,30.164"/>
	<path fill-rule="evenodd" clip-rule="evenodd" fill="#234266" d="M114.582,28.058c0.379,0.598,0.699,1.211,0.957,1.848l0.059,0.062
		c1.023,1.746,1.914,3.637,2.679,5.676c0.856,2.043,1.746,4.125,2.684,6.254c0.93,2.121,2.082,4.246,3.441,6.375
		c1.274,2.168,3.121,4.059,5.543,5.676c1.575,0.89,3.274,1.32,5.102,1.273c0.851,0.047,1.769-0.187,2.746-0.703
		c0.508-0.254,0.957-0.617,1.34-1.078v-0.066c0.379-0.469,0.637-0.957,0.762-1.469c0.171-1.063,0.171-2,0-2.805
		c-0.207-0.808-0.469-1.551-0.762-2.234c-0.637-1.36-1.387-2.614-2.231-3.758c-0.468-0.555-0.957-1.09-1.472-1.598
		c-0.207-0.254-0.465-0.488-0.762-0.699c-0.172-0.125-0.316-0.254-0.445-0.387l-0.387-0.254c-1.106-0.761-2.211-1.464-3.313-2.101
		c-0.636-0.34-1.273-0.656-1.914-0.957c-1.617-0.852-3.269-1.36-4.976-1.527c2.168,0.847,4.191,2.101,6.058,3.761
		c0.938,0.762,1.875,1.594,2.805,2.485l0.383,0.32l0.258,0.254c0.211,0.215,0.402,0.445,0.574,0.703
		c0.379,0.465,0.723,0.973,1.019,1.527c0.68,1.067,1.235,2.168,1.657,3.317c0.172,0.593,0.301,1.168,0.386,1.718
		c0.082,0.469,0.082,0.875,0,1.219c-0.046,0.039-0.066,0.082-0.066,0.121c-0.086,0.258-0.254,0.45-0.508,0.575
		c-0.301,0.128-0.722,0.195-1.277,0.195c-1.106,0.039-2.164-0.235-3.188-0.832c-1.742-1.145-3.273-2.676-4.593-4.59
		c-1.313-1.871-2.551-3.805-3.696-5.801c-1.105-1.961-2.211-3.89-3.316-5.805c-0.977-1.699-2.063-3.273-3.254-4.718
		c-0.211-0.215-0.406-0.422-0.574-0.637l0.066,0.063c-0.254-0.336-0.535-0.7-0.828-1.086c-0.176-0.207-0.363-0.422-0.578-0.637
		c-0.594-0.508-1.231-0.848-1.914-1.02C113.688,27.062,114.199,27.503,114.582,28.058"/>
	<path fill-rule="evenodd" clip-rule="evenodd" fill="#234266" d="M221.902,42.789c-3.996-0.215-7.289,0.91-9.887,3.379
		c-1.23,1.234-2.082,2.593-2.551,4.082c-0.129,0.507-0.215,0.976-0.254,1.402c-0.129,0.934-0.082,1.809,0.125,2.613
		c0,0.086,0.023,0.192,0.066,0.321c0.215-1.36,0.68-2.598,1.402-3.696c0.762-1.066,1.719-1.961,2.871-2.683
		c2.383-1.489,4.992-2.145,7.84-1.977c2.98,0.516,5.996,1.086,9.059,1.723c1.574,0.254,3.102,0.359,4.586,0.32
		c0.602-0.043,1.191-0.129,1.789-0.254c0.848-0.129,1.637-0.301,2.359-0.512c-0.809-0.086-1.617-0.211-2.422-0.386
		c-0.508-0.082-1.043-0.207-1.594-0.375c-1.32-0.344-2.656-0.77-4.016-1.278C228.512,44.234,225.387,43.339,221.902,42.789"/>
	<path fill-rule="evenodd" clip-rule="evenodd" fill="#234266" d="M238.863,49.355c-0.297,0.129-0.598,0.258-0.891,0.383
		c-1.574,0.765-3.086,1.68-4.531,2.746l-5.23,3.824c-1.742,1.278-3.547,2.442-5.418,3.508c-1.953,1.062-3.867,1.613-5.738,1.652
		c-0.555-0.039-1.082-0.144-1.594-0.316c-0.258-0.039-0.488-0.125-0.703-0.254c-0.125-0.039-0.273-0.104-0.446-0.191
		c-0.081-0.043-0.194-0.11-0.315-0.192c-0.43-0.297-0.75-0.574-0.957-0.828c-0.047-0.086-0.066-0.129-0.066-0.129
		c-0.168-0.254-0.254-0.508-0.254-0.762c0.086-0.722,0.527-1.554,1.34-2.488c0.762-0.851,1.633-1.594,2.609-2.23
		c0.516-0.344,1.023-0.637,1.535-0.899c0.254-0.125,0.488-0.234,0.699-0.316c0.258-0.043,0.531-0.125,0.832-0.254
		c1.191-0.301,2.355-0.574,3.508-0.828c2.297-0.555,4.547-0.703,6.758-0.449c-1.105-0.469-2.297-0.762-3.57-0.891
		c-1.105-0.129-2.234-0.172-3.383-0.129c-1.23,0-2.465,0.082-3.695,0.258c-0.301,0.039-0.641,0.105-1.023,0.187
		c-0.34,0.086-0.676,0.172-1.02,0.254c-0.641,0.215-1.277,0.489-1.914,0.832c-1.23,0.594-2.375,1.383-3.441,2.36
		c-0.555,0.511-1.062,1.105-1.531,1.789c-0.469,0.676-0.785,1.527-0.957,2.551c-0.082,1.058,0.172,2.054,0.77,2.992
		c0.082,0.168,0.207,0.34,0.379,0.511c0.465,0.555,0.98,0.997,1.531,1.336c0.172,0.129,0.359,0.258,0.574,0.383
		c0.125,0.047,0.301,0.133,0.508,0.254c0.383,0.176,0.77,0.32,1.152,0.449c0.848,0.301,1.699,0.45,2.551,0.45
		c1.398,0.039,2.738-0.176,4.016-0.637c1.23-0.43,2.379-0.957,3.441-1.594c2.082-1.277,3.957-2.684,5.613-4.211
		c1.656-1.488,3.23-2.953,4.719-4.398c1.445-1.492,2.953-2.785,4.527-3.891l0.062-0.066c0.512-0.469,1.02-0.871,1.531-1.211
		c0.594-0.297,1.23-0.446,1.914-0.446c-0.684-0.171-1.359-0.171-2.043,0c-0.723,0.254-1.379,0.571-1.977,0.954L238.863,49.355"/>
	<path fill-rule="evenodd" clip-rule="evenodd" fill="#234266" d="M238.098,78.246c1.02-0.215,2.062-0.196,3.121,0.062
		c1.961,0.465,3.703,1.422,5.23,2.871c0.172,0.125,0.34,0.274,0.508,0.442c1.621,1.914,3.191,3.847,4.727,5.804
		c0.207,0.254,0.461,0.508,0.762,0.766c0.637,0.723,1.34,1.363,2.105,1.914c0.848,0.637,1.719,1.145,2.609,1.531
		c-1.484-1.531-2.805-3.32-3.949-5.355c-1.066-2.129-2.484-4.258-4.273-6.379c-0.211-0.258-0.445-0.492-0.703-0.703
		c-2.039-1.742-4.289-2.68-6.754-2.805c-1.363-0.043-2.617,0.211-3.77,0.762c-0.121,0.086-0.254,0.172-0.375,0.258
		c-0.938,0.597-1.621,1.316-2.043,2.172c0.59-0.516,1.23-0.899,1.91-1.153C237.504,78.347,237.797,78.285,238.098,78.246"/>
	<path fill-rule="evenodd" clip-rule="evenodd" fill="#234266" d="M257.547,92.976c-0.508-0.215-1.043-0.387-1.598-0.515
		c-0.082,0-0.168-0.02-0.254-0.063c-1.441-0.508-2.973-0.871-4.59-1.082c-1.656-0.215-3.359-0.43-5.102-0.637
		c-1.699-0.215-3.379-0.554-5.039-1.023c-1.699-0.422-3.141-1.145-4.332-2.164c-0.172-0.172-0.321-0.34-0.449-0.516
		c-0.168-0.168-0.32-0.34-0.445-0.508c-0.129-0.168-0.234-0.34-0.316-0.507c-0.047-0.086-0.086-0.196-0.129-0.321l-0.066-0.191
		l-0.066-0.125c-0.168-0.43-0.23-0.789-0.188-1.086c0-0.215,0.066-0.406,0.188-0.574c0.469-0.383,1.191-0.598,2.176-0.637
		c0.93-0.047,1.867,0.039,2.805,0.254c0.465,0.086,0.91,0.187,1.34,0.316c0.207,0.086,0.402,0.172,0.57,0.258l0.703,0.316
		c0.848,0.43,1.68,0.872,2.484,1.34c1.191,0.684,2.273,1.446,3.254,2.297c0.086,0.086,0.145,0.149,0.191,0.192
		c0.297,0.296,0.57,0.57,0.824,0.832c-0.676-1.239-1.594-2.364-2.738-3.383c-0.297-0.301-0.594-0.574-0.891-0.828
		c-0.723-0.637-1.512-1.235-2.363-1.789l-0.637-0.442c-0.211-0.133-0.445-0.254-0.703-0.387c-0.508-0.253-1.016-0.464-1.527-0.636
		c-1.062-0.34-2.168-0.531-3.312-0.574c-0.555-0.043-1.152,0-1.789,0.125c-0.68,0.132-1.34,0.429-1.98,0.898
		c-0.676,0.637-1.059,1.379-1.145,2.23c-0.043,0.809,0.066,1.512,0.32,2.102l0.062,0.258l0.125,0.254
		c0,0.082,0.047,0.211,0.129,0.383c0.172,0.296,0.34,0.597,0.508,0.89c0.215,0.301,0.43,0.578,0.641,0.832s0.426,0.469,0.637,0.637
		c1.703,1.445,3.531,2.336,5.484,2.676c1.914,0.429,3.742,0.664,5.483,0.703c1.786,0.043,3.509,0.066,5.169,0.066
		c1.188,0,2.336,0.043,3.441,0.129c0.469,0.039,0.91,0.102,1.34,0.188h0.066h0.188c0.469,0,0.91,0.047,1.34,0.129
		c0.508,0.171,0.977,0.425,1.398,0.761C258.461,93.632,258.059,93.269,257.547,92.976"/>
	<path fill-rule="evenodd" clip-rule="evenodd" fill="#234266" d="M234.207,57.07c-1.062,0.769-1.871,1.703-2.422,2.805v0.066
		c-0.508,1.105-0.684,2.191-0.508,3.254c0.379-1.359,1.102-2.469,2.164-3.32c2.297-1.782,4.992-2.375,8.098-1.782
		c2.258,0.68,4.527,1.422,6.824,2.231c1.191,0.383,2.363,0.617,3.508,0.703c0.977,0.086,1.914,0.066,2.805-0.066
		c0.168-0.043,0.34-0.063,0.512-0.063c-0.426-0.086-0.852-0.191-1.273-0.32c-0.301-0.125-0.617-0.235-0.957-0.317
		c-1.273-0.468-2.551-1.043-3.824-1.718c-2-1.192-4.32-2.196-6.957-3C239.164,54.949,236.504,55.457,234.207,57.07"/>
	<path fill-rule="evenodd" clip-rule="evenodd" fill="#234266" d="M254.676,62.238c-0.723,0.215-1.426,0.469-2.102,0.765
		c-0.809,0.34-1.613,0.723-2.426,1.149c-1.445,0.766-2.91,1.547-4.398,2.359c-1.484,0.809-3.02,1.512-4.59,2.102
		c-1.574,0.64-3.105,0.871-4.594,0.703c-1.273-0.297-2.25-0.871-2.934-1.723c-0.211-0.3-0.273-0.574-0.191-0.828
		c0.125-0.597,0.555-1.191,1.277-1.789c0.723-0.59,1.484-1.078,2.297-1.465c0.422-0.168,0.848-0.336,1.273-0.508
		c0.379-0.082,0.809-0.171,1.277-0.257c0.93-0.125,1.848-0.211,2.738-0.254c1.871-0.168,3.637-0.039,5.293,0.383
		c-1.016-0.594-2.168-1-3.445-1.211c-0.59-0.129-1.188-0.235-1.781-0.317c-0.977-0.086-1.957-0.133-2.934-0.133
		c-0.469,0-1.004,0.047-1.594,0.133c-0.508,0.082-1.023,0.207-1.532,0.383c-1.019,0.336-1.995,0.824-2.933,1.465
		c-0.469,0.336-0.91,0.742-1.34,1.211c-0.426,0.465-0.742,1.086-0.957,1.847c-0.211,0.813-0.125,1.594,0.254,2.36
		c0.176,0.34,0.363,0.64,0.578,0.894c0.211,0.254,0.441,0.489,0.699,0.7c0.129,0.132,0.258,0.234,0.383,0.32
		c0.129,0.086,0.254,0.168,0.383,0.254c0.297,0.215,0.574,0.383,0.828,0.512c0.598,0.253,1.234,0.445,1.91,0.574
		c2.215,0.254,4.211-0.043,6-0.891c1.699-0.769,3.273-1.64,4.719-2.617c1.441-1.02,2.805-1.996,4.078-2.934
		c1.32-0.976,2.637-1.808,3.957-2.484l0.059-0.066c0.43-0.297,0.871-0.551,1.34-0.766c0.469-0.172,0.957-0.211,1.469-0.125
		c-0.469-0.215-0.98-0.281-1.531-0.195c-0.086,0-0.145,0.023-0.191,0.066c-0.508,0.082-0.977,0.234-1.406,0.445L254.676,62.238"/>
	<path fill-rule="evenodd" clip-rule="evenodd" fill="#234266" d="M196.141,25.57c-2.512,3.019-3.676,6.293-3.508,9.82
		c0.086,1.613,0.488,3.082,1.211,4.399c0,0.086,0.02,0.175,0.062,0.257c0.809,1.364,1.805,2.403,2.996,3.125
		c-0.848-1.234-1.402-2.593-1.656-4.078c-0.211-1.191-0.211-2.406,0-3.636c0.379-2.805,1.531-5.293,3.445-7.465
		c0.508-0.508,1.059-1.016,1.656-1.528c0.594-0.468,1.191-0.957,1.785-1.464c1.23-0.895,2.445-1.848,3.637-2.872
		c1.23-0.976,2.316-2.062,3.246-3.253c0.555-0.766,1.043-1.528,1.473-2.297c0.082-0.168,0.168-0.356,0.254-0.571
		c0.168-0.254,0.297-0.535,0.383-0.828c-0.047,0.039-0.086,0.086-0.129,0.125c-0.809,0.805-1.68,1.555-2.617,2.231
		c-0.125,0.086-0.254,0.172-0.379,0.254c-1.148,0.812-2.359,1.554-3.637,2.234c-1.32,0.68-2.68,1.469-4.078,2.359
		c-0.724,0.426-1.426,0.891-2.109,1.407C197.539,24.296,196.863,24.89,196.141,25.57"/>
	<path fill-rule="evenodd" clip-rule="evenodd" fill="#234266" d="M210.168,29.781c-0.215,2.25-0.551,4.465-1.02,6.629
		c-0.426,2.254-1.211,4.191-2.363,5.804c-0.676,0.895-1.527,1.485-2.551,1.786c-0.551,0.214-0.977,0.296-1.273,0.253
		c-0.211-0.039-0.379-0.105-0.508-0.191c-0.086-0.043-0.172-0.101-0.254-0.187c-0.555-0.637-0.875-1.594-0.957-2.872
		c-0.129-1.187-0.109-2.406,0.062-3.636c0.039-0.59,0.145-1.168,0.32-1.723c0.039-0.293,0.105-0.574,0.187-0.828
		c0.087-0.211,0.216-0.469,0.388-0.766c0.465-1.144,0.996-2.25,1.594-3.312c1.059-2.211,2.418-4.082,4.078-5.613
		c-1.867,1.019-3.527,2.464-4.973,4.336c-0.129,0.171-0.258,0.32-0.383,0.445c-0.766,0.98-1.488,2.023-2.168,3.129l-0.258,0.441
		c-0.125,0.129-0.207,0.281-0.254,0.449c-0.168,0.34-0.32,0.68-0.441,1.024c-0.262,0.637-0.469,1.293-0.641,1.972
		c-0.344,1.36-0.512,2.782-0.512,4.274c0,0.723,0.109,1.488,0.319,2.297c0.13,0.804,0.513,1.633,1.149,2.484
		c0.68,0.852,1.594,1.379,2.742,1.594h0.062c1.023,0.086,1.934,0,2.742-0.254c1.703-0.551,3.121-1.527,4.273-2.934
		c0.891-1.144,1.547-2.363,1.977-3.636c0.426-1.231,0.742-2.465,0.957-3.696c0.34-2.422,0.508-4.785,0.508-7.082
		c0-2.293-0.043-4.5-0.129-6.629c-0.086-2.128-0.02-4.164,0.195-6.121v-0.125v0.059c-0.047-0.723,0-1.399,0.125-2.039
		c0.129-0.68,0.426-1.274,0.895-1.785c-0.598,0.425-1.039,0.953-1.34,1.593c-0.297,0.723-0.488,1.422-0.574,2.106v-0.063
		c-0.129,0.336-0.234,0.7-0.316,1.086c-0.262,0.805-0.449,1.633-0.578,2.485c-0.172,0.89-0.293,1.804-0.379,2.738
		C210.613,25.402,210.379,27.57,210.168,29.781"/>
	<path fill-rule="evenodd" clip-rule="evenodd" fill="#234266" d="M151.758,10.457c0.765,1.234,1.656,2.382,2.68,3.445
		c2.082,2.125,4.183,4.25,6.312,6.379c1.91,2.082,3.078,4.437,3.508,7.074c0.254,1.273,0.207,2.512-0.133,3.699
		c-0.336,1.063-0.91,2-1.719,2.805l-0.316,0.32c1.101-0.34,2.082-1,2.93-1.976c0.172-0.172,0.297-0.34,0.383-0.508
		c0.891-1.32,1.383-2.805,1.469-4.465c0.125-3.441-1.066-6.57-3.57-9.375c-1.153-1.191-2.344-2.273-3.574-3.254
		c-1.231-0.93-2.422-1.805-3.571-2.609c-1.484-1.024-2.871-2.11-4.144-3.254c-0.68-0.637-1.34-1.297-1.981-1.977
		c0.176,0.469,0.367,0.957,0.578,1.465C150.906,8.949,151.289,9.695,151.758,10.457"/>
	<path fill-rule="evenodd" clip-rule="evenodd" fill="#234266" d="M150.031,33.414c0.516,0.636,1.086,1.191,1.727,1.656
		c0.297,0.254,0.637,0.488,1.019,0.703c0.301,0.172,0.618,0.34,0.957,0.508c0.723,0.344,1.575,0.555,2.551,0.64
		c1.02,0.043,1.977-0.296,2.871-1.019c0.207-0.211,0.403-0.426,0.571-0.637c0.425-0.551,0.703-1.105,0.828-1.66
		c0.257-0.766,0.402-1.508,0.449-2.23c0.043-1.407-0.086-2.747-0.383-4.02c-0.125-0.637-0.32-1.277-0.574-1.914
		c-0.086-0.125-0.168-0.273-0.254-0.441c-0.047-0.172-0.109-0.321-0.195-0.45l-0.442-0.761c-0.597-1.067-1.238-2.063-1.914-3
		c-0.43-0.555-0.851-1.086-1.277-1.594c-1.02-1.277-2.164-2.317-3.442-3.125c1.403,1.613,2.551,3.445,3.442,5.484
		c0.469,1.02,0.894,2.059,1.277,3.125l0.317,0.828c0.086,0.129,0.125,0.254,0.125,0.383l0.132,0.321
		c0.129,0.507,0.211,1.039,0.254,1.593c0.129,1.106,0.11,2.211-0.066,3.317c-0.086,0.593-0.254,1.125-0.508,1.593
		c-0.129,0.34-0.273,0.575-0.449,0.7c-0.168,0.082-0.379,0.129-0.637,0.129c-0.34-0.047-0.742-0.168-1.211-0.383
		c-0.211-0.125-0.445-0.254-0.703-0.387c-0.207-0.121-0.422-0.273-0.637-0.441c-0.379-0.34-0.742-0.704-1.082-1.086
		c-1.105-1.446-1.847-3.188-2.23-5.227c-0.34-1.996-0.535-4.019-0.574-6.058c-0.086-2.043-0.149-4.083-0.196-6.122
		c-0.039-2-0.316-3.957-0.824-5.867v0.063c-0.047-0.297-0.086-0.594-0.129-0.891c-0.086-0.383-0.191-0.746-0.32-1.086
		c-0.086-0.172-0.168-0.32-0.254-0.445c-0.254-0.469-0.574-0.852-0.957-1.149c0.168,0.254,0.32,0.512,0.449,0.766
		c0,0.039,0.02,0.086,0.059,0.125c0.086,0.258,0.176,0.531,0.258,0.832c0.043,0.594,0.023,1.211-0.063,1.848v0.129
		c0.086,1.785,0,3.652-0.254,5.609c-0.262,1.961-0.469,3.996-0.637,6.125c-0.175,2.121-0.109,4.352,0.188,6.695
		C147.547,28.972,148.465,31.246,150.031,33.414"/>
	<path fill-rule="evenodd" clip-rule="evenodd" fill="#234266" d="M98.383,100.562c-1.278,0.938-2.59,1.742-3.953,2.422
		c-0.637,0.297-1.274,0.551-1.91,0.766c0.382,0.039,0.785,0.039,1.21,0c0.719-0.043,1.442-0.129,2.165-0.254
		c1.191-0.297,2.343-0.723,3.445-1.274c1.148-0.554,2.273-1.133,3.383-1.726c0.507-0.254,1.058-0.508,1.656-0.766l0.828-0.379
		l0.449-0.195l0.379-0.125c2.211-0.68,4.422-0.66,6.633,0.062c1.953,0.637,3.484,1.828,4.59,3.571
		c0.086,0.129,0.168,0.281,0.254,0.449c-0.086-1.106-0.489-2.192-1.211-3.254l0,0c-0.723-1.02-1.68-1.867-2.867-2.551
		c-2.469-1.359-5.207-1.613-8.227-0.765C102.488,97.691,100.211,99.031,98.383,100.562"/>
	<path fill-rule="evenodd" clip-rule="evenodd" fill="#234266" d="M117.191,104.453c-0.507-0.383-1.039-0.723-1.593-1.02
		c-1.059-0.515-2.121-0.894-3.188-1.152c-1.101-0.254-2.23-0.32-3.379-0.188c-1.019,0.129-2.015,0.297-2.996,0.508
		c-0.976,0.211-1.933,0.492-2.871,0.832c-0.891,0.383-1.699,0.844-2.422,1.399c1.699-0.723,3.528-1.102,5.485-1.145
		c0.937-0.047,1.914-0.047,2.937,0c0.891,0,1.801,0.168,2.738,0.508c0.938,0.297,1.809,0.703,2.618,1.215
		c0.843,0.508,1.421,1.082,1.718,1.718c0.172,0.383,0.043,0.852-0.379,1.407c-0.554,0.761-1.363,1.293-2.425,1.593
		c-1.575,0.297-3.254,0.208-5.039-0.253c-1.7-0.43-3.379-0.957-5.036-1.594c-1.703-0.641-3.359-1.258-4.976-1.856
		c-0.977-0.379-1.973-0.695-2.996-0.957c-0.637-0.125-1.293-0.254-1.977-0.379l0.067,0.063c-0.516-0.172-1.043-0.277-1.598-0.32
		H91.75c-0.551,0-1.082,0.129-1.594,0.382c0.555-0.168,1.086-0.187,1.594-0.062c0.516,0.172,1.004,0.383,1.469,0.637h0.062
		c1.489,0.511,2.977,1.191,4.461,2.043c1.535,0.765,3.129,1.546,4.785,2.359c1.618,0.809,3.383,1.512,5.293,2.102
		c1.871,0.64,3.953,0.769,6.25,0.386c1.403-0.386,2.571-1.105,3.508-2.168c0,0,0.02-0.023,0.063-0.066
		c0.425-0.469,0.769-1.086,1.023-1.848c0.207-0.851,0.148-1.66-0.195-2.426C118.129,105.449,117.707,104.875,117.191,104.453"/>
	<path fill-rule="evenodd" clip-rule="evenodd" fill="#234266" d="M99.977,37.941c1.066,0.215,2.171,0.34,3.316,0.383
		c1.277,0,2.531-0.02,3.762-0.063h1.914c0.636,0.043,1.234,0.082,1.789,0.129c2.375,0.422,4.437,1.426,6.18,2.992
		c1.746,1.536,2.746,3.45,3,5.739c0.124-0.508,0.21-1.039,0.253-1.594c0.047-0.551,0-1.125-0.129-1.719v-0.191
		c-0.292-1.278-0.847-2.442-1.652-3.508c-1.746-2.254-4.172-3.676-7.273-4.27c-2.93-0.171-5.59,0-7.973,0.508
		c-1.316,0.254-2.59,0.403-3.824,0.449c-1.02,0-2.02-0.046-2.996-0.128c0.976,0.511,2.062,0.914,3.254,1.207
		C99.723,37.875,99.852,37.902,99.977,37.941"/>
	<path fill-rule="evenodd" clip-rule="evenodd" fill="#234266" d="M96.09,38.707l0.058,0.066c1.153,1.102,2.258,2.355,3.321,3.762
		c1.105,1.359,2.25,2.758,3.441,4.211c1.192,1.398,2.531,2.781,4.02,4.144c1.484,1.36,3.332,2.375,5.547,3.059
		c1.402,0.336,2.785,0.273,4.144-0.192c0.68-0.257,1.32-0.683,1.91-1.273c0.086-0.086,0.153-0.176,0.196-0.262
		c0.507-0.676,0.742-1.379,0.699-2.101c-0.039-0.805-0.235-1.508-0.574-2.102c-0.297-0.598-0.637-1.129-1.02-1.594
		c-0.762-0.898-1.617-1.679-2.551-2.363c-0.894-0.723-1.871-1.254-2.929-1.594c-1.024-0.382-2.024-0.679-3-0.89
		c-0.168-0.043-0.34-0.086-0.508-0.129c-1.875-0.426-3.656-0.508-5.36-0.254c1.871,0.129,3.7,0.594,5.485,1.402
		c0.938,0.426,1.847,0.848,2.746,1.278c0.844,0.421,1.633,0.976,2.355,1.652c0.766,0.684,1.426,1.426,1.977,2.234
		c0.594,0.895,0.91,1.676,0.957,2.36c-0.047,0.086-0.066,0.148-0.066,0.191c-0.04,0.172-0.126,0.316-0.254,0.445
		c-0.215,0.215-0.532,0.407-0.957,0.575c-0.852,0.254-1.743,0.281-2.68,0.066c-1.567-0.426-3.078-1.258-4.524-2.488
		c-1.449-1.149-2.808-2.36-4.082-3.637c-1.277-1.273-2.55-2.531-3.828-3.762c-0.675-0.636-1.359-1.254-2.039-1.847
		c-0.636-0.551-1.32-1.039-2.039-1.469l0.063,0.066c-0.422-0.425-0.91-0.765-1.465-1.023c-0.551-0.293-1.106-0.422-1.656-0.379
		c0.55,0.125,1.039,0.359,1.461,0.699C95.367,37.902,95.746,38.281,96.09,38.707"/>
	<path fill-rule="evenodd" clip-rule="evenodd" fill="#234266" d="M130.586,9.312c0.894,0.891,1.891,1.676,2.996,2.359
		c2.215,1.317,4.379,2.696,6.508,4.145c1.914,1.57,3.293,3.484,4.144,5.738c0.465,1.317,0.637,2.657,0.508,4.016
		c-0.086,0.851-0.34,1.66-0.765,2.422c0.343-0.254,0.636-0.574,0.894-0.957c0.465-0.59,0.809-1.274,1.016-2.035
		c0.386-1.278,0.449-2.598,0.195-3.957c-0.512-2.805-1.977-5.25-4.398-7.332c-2.465-1.661-4.868-2.911-7.207-3.762
		c-1.11-0.426-2.168-0.914-3.192-1.465c-1.019-0.598-1.976-1.234-2.867-1.914c0.168,0.254,0.336,0.508,0.512,0.762
		C129.395,8.015,129.945,8.671,130.586,9.312"/>
	<path fill-rule="evenodd" clip-rule="evenodd" fill="#234266" d="M126.379,5.867c0.172,0.211,0.293,0.445,0.379,0.703
		c0.215,0.508,0.363,1.062,0.449,1.656v0.063c0.469,1.574,0.828,3.234,1.086,4.976c0.293,1.738,0.613,3.528,0.957,5.356
		c0.336,1.867,0.848,3.761,1.527,5.675c0.594,1.957,1.7,3.782,3.313,5.485c1.023,0.976,2.234,1.633,3.637,1.976
		c0.683,0.172,1.445,0.192,2.296,0.063c0.426-0.125,0.829-0.34,1.211-0.641c0.254-0.168,0.469-0.402,0.637-0.695
		c0.086-0.086,0.172-0.195,0.254-0.32c0.34-0.766,0.516-1.489,0.516-2.172c0-0.637-0.047-1.25-0.129-1.848
		c-0.254-1.191-0.617-2.316-1.086-3.379c-0.254-0.512-0.531-1.019-0.828-1.527c-0.34-0.469-0.684-0.918-1.02-1.34
		c-0.723-0.809-1.445-1.574-2.168-2.297h-0.066c-1.485-1.492-3.102-2.598-4.848-3.32c1.535,1.066,2.895,2.426,4.086,4.086
		c0.594,0.808,1.164,1.633,1.719,2.488c0.301,0.422,0.554,0.844,0.765,1.273c0.211,0.422,0.387,0.891,0.512,1.399
		c0.336,0.937,0.57,1.914,0.699,2.937c0.086,0.766,0.047,1.469-0.129,2.106c-0.039,0.125-0.082,0.254-0.125,0.379
		c-0.168,0.215-0.363,0.344-0.57,0.383c-0.301,0.046-0.683,0.019-1.152-0.063c-0.891-0.254-1.699-0.723-2.422-1.402
		c-1.191-1.235-2.125-2.719-2.805-4.461c-0.683-1.746-1.273-3.488-1.789-5.235c-0.469-1.781-0.976-3.546-1.527-5.289
		c-0.34-1.234-0.77-2.425-1.278-3.57c-0.168-0.469-0.382-0.914-0.636-1.34v0.063c-0.168-0.551-0.422-1.086-0.766-1.594
		c-0.34-0.555-0.762-0.957-1.277-1.211c0.215,0.168,0.383,0.359,0.515,0.574C126.355,5.847,126.379,5.867,126.379,5.867"/>
	<path fill-rule="evenodd" clip-rule="evenodd" fill="#234266" d="M182.43,28.121c-0.598,0.894-1.172,1.847-1.723,2.871
		c-0.469,0.89-0.914,1.828-1.34,2.804c-0.977,2.043-1.699,4.293-2.168,6.762c-0.254,1.188-0.32,2.485-0.191,3.891
		c0.086,0.722,0.301,1.465,0.641,2.23c0.297,0.723,0.785,1.379,1.465,1.977c1.488,1.062,2.996,1.551,4.527,1.465
		c0.809,0,1.594-0.129,2.359-0.383h0.125c0.895-0.34,1.66-0.871,2.297-1.594c0.594-0.723,1.004-1.484,1.211-2.297
		c0.215-0.761,0.34-1.508,0.383-2.23c0.086-1.446,0.02-2.805-0.188-4.082c-0.383-2.551-0.938-4.953-1.66-7.203
		s-1.426-4.426-2.106-6.508c-0.339-1.059-0.64-2.102-0.894-3.121c-0.254-1.024-0.383-2.043-0.383-3.059
		c-0.254,0.891-0.379,1.828-0.379,2.805v0.383c0,0.421,0.02,0.847,0.062,1.273c0.043,0.68,0.109,1.363,0.191,2.039
		c0.254,2.211,0.574,4.465,0.957,6.762c0.426,2.336,0.742,4.676,0.957,7.012c0.125,1.191,0.148,2.316,0.066,3.378
		c-0.129,1.153-0.43,1.997-0.898,2.551c-0.207,0.297-0.488,0.512-0.828,0.637c-0.129,0.047-0.273,0.066-0.445,0.066
		c-0.254,0.082-0.531,0.129-0.828,0.129c-1.062,0.039-1.895-0.148-2.484-0.574c-0.555-0.426-0.957-1.129-1.211-2.105
		c-0.215-1.024-0.281-2.082-0.195-3.188c0.129-2.215,0.469-4.402,1.02-6.566C181.238,32.117,181.793,30.082,182.43,28.121"/>
	<path fill-rule="evenodd" clip-rule="evenodd" fill="#234266" d="M171.523,31.246c-0.977,1.445-1.637,3.062-1.977,4.847
		c-0.34,1.828-0.188,3.551,0.449,5.164c0.676,1.532,1.574,2.805,2.676,3.829l0.895,0.761c0.809,0.637,1.613,1.172,2.422,1.594
		c-0.043-0.039-0.086-0.105-0.129-0.188c-1.656-2.042-2.785-4.296-3.379-6.761c-0.383-2.465,0.273-4.934,1.977-7.399
		c1.699-2.422,3.488-4.781,5.354-7.074c0.896-1.191,1.728-2.406,2.489-3.637c0.766-1.23,1.254-2.504,1.469-3.824
		c-0.383,0.551-0.785,1.059-1.215,1.528c-0.465,0.468-0.934,0.937-1.398,1.406c-1.023,0.89-2.086,1.801-3.191,2.738
		C175.625,26.058,173.48,28.394,171.523,31.246"/>
	<path fill-rule="evenodd" clip-rule="evenodd" fill="#234266" d="M175.605,10.203c0.254,1.613,0.469,3.254,0.637,4.91
		c0.086,0.848,0.086,1.66,0,2.422c-0.039,0.515-0.148,0.957-0.32,1.34c-0.082,0.171-0.168,0.32-0.254,0.449
		c-0.168,0.168-0.363,0.293-0.57,0.379c-0.254,0.086-0.536,0.129-0.832,0.129c-0.762,0.046-1.336-0.086-1.719-0.383
		c-0.43-0.254-0.723-0.742-0.895-1.465c-0.129-0.684-0.172-1.426-0.129-2.231c0.086-1.574,0.32-3.105,0.703-4.593
		c0.254-1.192,0.555-2.336,0.891-3.442c0.086-0.3,0.172-0.621,0.254-0.957c-0.805,1.231-1.547,2.571-2.23,4.016
		c-0.676,1.449-1.191,3.043-1.527,4.781c-0.172,0.852-0.215,1.789-0.133,2.809c0.047,0.554,0.215,1.101,0.516,1.656
		c0.207,0.512,0.527,0.953,0.957,1.34c1.105,0.765,2.211,1.125,3.312,1.086c0.551,0,1.129-0.11,1.723-0.321
		c0.637-0.214,1.191-0.597,1.66-1.152c0.039-0.039,0.082-0.101,0.125-0.187c0.68-1.02,1.02-2.043,1.02-3.059
		c0.086-0.98,0.043-1.937-0.125-2.871c-0.297-1.789-0.703-3.484-1.215-5.102c-0.508-1.617-0.996-3.148-1.465-4.589
		c-0.129-0.387-0.254-0.771-0.383-1.149c-0.34-1.105-0.527-2.191-0.574-3.254c-0.34,1.446-0.383,2.977-0.129,4.59
		C175.078,6.929,175.305,8.543,175.605,10.203"/>
	<path fill-rule="evenodd" clip-rule="evenodd" fill="#234266" d="M166.359,18.812c0.766,0.68,1.574,1.234,2.426,1.656
		c-0.598-0.765-1.105-1.574-1.535-2.418c-0.465-0.812-0.781-1.64-0.957-2.492c-0.207-1.738,0.281-3.484,1.469-5.226
		c1.191-1.704,2.441-3.383,3.762-5.036c0.641-0.812,1.211-1.66,1.727-2.55c0.461-0.813,0.781-1.641,0.953-2.493
		c0.043-0.085,0.062-0.167,0.062-0.253c-0.211,0.339-0.445,0.636-0.699,0.89c-0.383,0.383-0.785,0.77-1.215,1.153l-2.23,1.976
		c-0.594,0.465-1.168,0.977-1.719,1.531c-1.066,0.977-2.023,2.102-2.871,3.375c-0.684,1.067-1.152,2.215-1.406,3.446
		c-0.254,1.32-0.148,2.55,0.32,3.699C164.957,17.175,165.598,18.089,166.359,18.812"/>
	<path fill-rule="evenodd" clip-rule="evenodd" fill="#234266" d="M197.352,5.675c-0.133,0.465-0.254,0.914-0.387,1.34
		c-0.336,1.528-0.637,3.102-0.891,4.715c-0.297,1.621-0.637,3.215-1.02,4.785c-0.254,0.813-0.527,1.535-0.828,2.172
		c-0.34,0.723-0.723,1.164-1.152,1.336c-0.207,0.129-0.441,0.172-0.695,0.129h-0.32c-0.215-0.047-0.402-0.106-0.578-0.191
		c-0.676-0.215-1.164-0.532-1.465-0.958c-0.297-0.382-0.422-0.914-0.383-1.593c0.086-0.68,0.281-1.383,0.574-2.106
		c0.637-1.402,1.383-2.742,2.23-4.015c0.852-1.278,1.723-2.465,2.617-3.571c-0.641,0.422-1.277,0.91-1.914,1.461
		c-0.508,0.43-1.02,0.899-1.531,1.407c-1.145,1.105-2.184,2.402-3.121,3.89c-0.469,0.723-0.809,1.594-1.023,2.617
		c-0.297,1.016-0.129,2.102,0.508,3.246c0.723,1.067,1.598,1.747,2.617,2.043c0.469,0.168,0.957,0.301,1.469,0.383h0.253
		c0.642,0.043,1.278-0.082,1.915-0.383c1.145-0.683,1.914-1.527,2.297-2.55c0.422-0.938,0.723-1.848,0.891-2.739
		c0.34-1.789,0.527-3.507,0.574-5.168c0.043-1.66,0.086-3.254,0.129-4.781c-0.043-1.531,0.125-2.98,0.508-4.34
		C198.582,2.89,198.52,3,198.438,3.125c-0.301,0.511-0.555,1.066-0.77,1.656C197.539,5.082,197.434,5.378,197.352,5.675"/>
	<path fill-rule="evenodd" clip-rule="evenodd" fill="#234266" d="M184.914,17.093c0.34,0.551,0.742,1.059,1.211,1.528
		c-0.125-0.297-0.207-0.618-0.254-0.957c-0.508-1.489-0.68-2.977-0.508-4.461c0.34-1.66,1.379-3.067,3.125-4.211
		c1.699-1.145,3.461-2.231,5.289-3.254c0.852-0.551,1.68-1.125,2.488-1.719c0.043-0.043,0.082-0.062,0.129-0.062
		c0.766-0.641,1.379-1.34,1.848-2.11c-0.422,0.301-0.848,0.535-1.277,0.703c-0.383,0.168-0.785,0.34-1.207,0.512l-2.805,0.895
		c-2,0.589-4.023,1.546-6.059,2.867c-1.023,0.722-1.875,1.637-2.551,2.742c-0.641,1.148-0.938,2.34-0.895,3.57
		c0.125,1.192,0.445,2.231,0.957,3.125C184.531,16.558,184.703,16.832,184.914,17.093"/>
	<path fill-rule="evenodd" clip-rule="evenodd" fill="#234266" d="M231.336,25.957c-0.125,0.121-0.254,0.273-0.379,0.441
		c-0.469,0.637-0.896,1.277-1.273,1.914c-0.387,0.598-0.723,1.191-1.023,1.789c-0.43,0.762-0.852,1.547-1.273,2.356
		c-0.77,1.449-1.575,2.847-2.426,4.211c-0.465,0.636-0.957,1.207-1.465,1.722c-0.555,0.508-1.043,0.785-1.465,0.824
		c-0.262,0-0.555-0.082-0.898-0.253c-0.207-0.083-0.422-0.211-0.637-0.383c-0.594-0.422-0.977-0.871-1.145-1.34
		c-0.172-0.461-0.133-0.996,0.129-1.594c0.254-0.594,0.637-1.191,1.145-1.785c1.02-1.106,2.148-2.125,3.379-3.059
		c1.191-0.894,2.379-1.722,3.57-2.488c-1.145,0.344-2.297,0.766-3.441,1.274c-0.254,0.085-0.488,0.195-0.703,0.32
		c-1.445,0.637-2.824,1.508-4.145,2.613c-0.676,0.555-1.277,1.258-1.785,2.109c-0.598,0.93-0.766,2.04-0.512,3.313
		c0.43,1.152,1.066,2.043,1.914,2.68c0.426,0.34,0.895,0.617,1.402,0.828c0.254,0.129,0.535,0.215,0.828,0.254
		c0.344,0.086,0.703,0.129,1.086,0.129c1.359-0.254,2.383-0.786,3.059-1.594c0.723-0.723,1.301-1.488,1.723-2.297
		c0.895-1.574,1.598-3.125,2.105-4.652c0.551-1.575,1.066-3.067,1.531-4.465c0.465-1.488,1.082-2.805,1.852-3.953
		C232.059,25.168,231.68,25.527,231.336,25.957"/>
	<path fill-rule="evenodd" clip-rule="evenodd" fill="#234266" d="M215.59,35.39c0.039,0.086,0.082,0.168,0.125,0.254v-0.508
		c0-0.554,0.023-1.105,0.062-1.66c0.086-1.144,0.363-2.187,0.832-3.121c0.809-1.492,2.207-2.488,4.207-3
		c1.995-0.508,4.02-0.934,6.055-1.277c1.023-0.254,2-0.528,2.934-0.825c0.809-0.253,1.531-0.617,2.168-1.085
		c0.129-0.086,0.262-0.192,0.383-0.321c-0.637,0.176-1.273,0.258-1.91,0.258c-0.301,0.043-0.574,0.063-0.828,0.063h-1.211
		l-1.723-0.063c-0.172,0.043-0.363,0.063-0.574,0.063c-1.871-0.086-3.871,0.148-5.992,0.703c-1.191,0.297-2.297,0.851-3.316,1.656
		c-1.023,0.891-1.699,1.934-2.043,3.125c-0.125,0.637-0.191,1.234-0.191,1.789c0,0.551,0.066,1.059,0.191,1.527
		C214.93,33.816,215.203,34.628,215.59,35.39"/>
	<path fill-rule="evenodd" clip-rule="evenodd" fill="#234266" d="M97.426,96.097c0.851,0.34,1.789,0.574,2.808,0.703
		c0.508,0.086,1.043,0.086,1.594,0c0.641-0.086,1.231-0.297,1.785-0.636c0.34-0.301,0.637-0.618,0.891-0.957
		c0.168-0.176,0.301-0.344,0.383-0.512c0.301-0.555,0.488-1.106,0.574-1.66c0.254-1.016,0.148-2.102-0.32-3.25
		c-0.637-1.149-1.485-1.871-2.551-2.172c-0.934-0.336-1.848-0.508-2.738-0.508c-1.743,0-3.383,0.215-4.914,0.641
		c-0.551,0.129-1.079,0.273-1.594,0.445c-0.934,0.297-1.828,0.613-2.676,0.957c1.445-0.172,2.93-0.277,4.465-0.316
		c1.531-0.086,3.039-0.028,4.523,0.187c0.77,0.129,1.469,0.34,2.11,0.637c0.589,0.301,0.976,0.683,1.144,1.148
		c0.168,0.469,0.168,1.067,0,1.785c-0.039,0.258-0.125,0.489-0.254,0.704c-0.129,0.296-0.301,0.507-0.508,0.64
		c-0.382,0.254-0.937,0.356-1.66,0.317c-0.765-0.086-1.527-0.235-2.297-0.45c-1.574-0.464-3.101-1.019-4.593-1.656
		c-1.528-0.594-3.012-1.148-4.461-1.66c-0.086,0-0.145-0.02-0.192-0.059c-0.679-0.214-1.359-0.406-2.043-0.578
		c-0.636-0.125-1.25-0.191-1.847-0.191h-0.383c1.359,0.387,2.68,1.004,3.957,1.847c1.32,0.77,2.699,1.575,4.144,2.43
		C94.176,94.738,95.727,95.461,97.426,96.097"/>
	<path fill-rule="evenodd" clip-rule="evenodd" fill="#234266" d="M86.969,88.191c0.89-0.344,1.808-0.746,2.746-1.215
		c1.828-1.015,3.648-1.973,5.48-2.867c1.91-0.848,3.657-0.977,5.231-0.379c1.527,0.723,2.847,1.781,3.953,3.188l0.254,0.253
		c-0.254-0.89-0.617-1.789-1.086-2.679v-0.067c-0.508-0.89-1.231-1.679-2.168-2.355c-1.02-0.723-2.184-1.106-3.504-1.152
		c-1.32,0-2.531,0.261-3.637,0.769c-2.207,1.059-4.082,2.277-5.609,3.637l-2.234,1.91c-0.297,0.258-0.594,0.488-0.891,0.699
		c-0.469,0.344-0.938,0.617-1.406,0.832h0.703C85.523,88.636,86.246,88.445,86.969,88.191"/>
	<path fill-rule="evenodd" clip-rule="evenodd" fill="#234266" d="M241.797,105.027c-0.297,0.039-0.598,0.062-0.895,0.062
		c-1.914,0.211-3.848,0.489-5.801,0.829c-1.996,0.3-4,0.488-5.996,0.574c-2.207,0.129-3.867-0.34-4.973-1.403
		c-0.047-0.082-0.086-0.171-0.129-0.257c-0.379-0.508-0.594-1.192-0.641-2.039c-0.039-0.934,0.113-1.676,0.448-2.231
		c0.384-0.512,1.024-0.832,1.915-0.957c0.852-0.086,1.762-0.062,2.738,0.066c1.914,0.293,3.77,0.743,5.551,1.336
		c1.828,0.551,3.551,1.168,5.168,1.852c-0.555-0.383-1.129-0.766-1.727-1.152c-0.934-0.59-1.93-1.164-2.992-1.719
		c-1.703-0.934-3.57-1.676-5.613-2.231c-1.023-0.3-2.148-0.429-3.379-0.382c-0.598,0.039-1.211,0.168-1.848,0.382
		c-0.684,0.293-1.258,0.743-1.723,1.336c-0.469,0.598-0.77,1.235-0.895,1.914c-0.168,0.637-0.234,1.274-0.191,1.911
		c0,1.277,0.426,2.531,1.273,3.765v0.063c1.066,1.105,2.258,1.765,3.57,1.976c1.238,0.254,2.401,0.321,3.508,0.196
		c2.254-0.215,4.359-0.598,6.312-1.153c1.957-0.508,3.828-1.039,5.613-1.594c0.938-0.253,1.852-0.468,2.742-0.636
		c0.891-0.172,1.762-0.235,2.613-0.192c-0.852-0.254-1.742-0.382-2.68-0.382C243.094,104.961,242.434,104.98,241.797,105.027"/>
	<path fill-rule="evenodd" clip-rule="evenodd" fill="#234266" d="M245.43,102.73c-0.211-0.254-0.422-0.488-0.637-0.703
		c-0.809-0.938-1.613-1.895-2.422-2.871c-1.023-1.231-2.129-2.442-3.316-3.629c-0.766-0.813-1.617-1.574-2.551-2.297
		c-1.192-0.937-2.508-1.66-3.953-2.168c-1.489-0.512-3-0.578-4.527-0.195c-1.445,0.469-2.617,1.191-3.508,2.168v0.066
		c-0.891,0.934-1.574,1.91-2.043,2.934c1.105-1.106,2.383-2,3.828-2.68c0.68-0.297,1.383-0.488,2.105-0.574
		c2.207-0.086,4.379,0.765,6.5,2.551c2.129,1.703,4.168,3.421,6.125,5.164c0.977,0.855,1.977,1.64,3,2.363
		c0.379,0.211,0.742,0.422,1.078,0.637c0.723,0.425,1.445,0.722,2.168,0.89c-0.34-0.254-0.676-0.531-1.016-0.828
		C245.961,103.3,245.684,103.027,245.43,102.73"/>
	<path fill-rule="evenodd" clip-rule="evenodd" fill="#234266" d="M109.285,70.976c-0.465,0.637-1.019,1.039-1.656,1.211
		c-0.895,0.125-1.867-0.019-2.93-0.449c-1.023-0.383-2.023-0.871-3-1.465c-1.996-1.234-3.91-2.531-5.738-3.891
		c-1.785-1.32-3.574-2.597-5.356-3.828h-0.066c-0.891-0.59-1.809-1.144-2.738-1.656c-0.555-0.301-1.106-0.555-1.66-0.762
		c-0.426-0.133-0.832-0.234-1.211-0.32c0.894,0.422,1.738,0.957,2.55,1.594c0.809,0.636,1.594,1.316,2.36,2.039
		c1.613,1.445,3.269,2.933,4.976,4.461c1.653,1.531,3.528,3,5.61,4.402c1.019,0.719,2.144,1.34,3.375,1.852
		c1.238,0.593,2.679,0.781,4.34,0.574c0.847-0.172,1.593-0.535,2.23-1.086c0.258-0.211,0.469-0.445,0.641-0.703
		c0.336-0.34,0.59-0.699,0.761-1.082c0.383-0.598,0.661-1.274,0.832-2.043c0.168-0.762,0.149-1.547-0.066-2.356
		c-0.254-0.812-0.637-1.488-1.144-2.043c-0.512-0.507-1.043-0.937-1.594-1.273c-1.153-0.684-2.297-1.172-3.449-1.465
		c-2.29-0.641-4.524-1.023-6.696-1.152c-0.379,0-0.742-0.02-1.082-0.067c-1.785-0.082-3.504-0.058-5.164,0.067
		c1.996,0.254,4.039,0.617,6.121,1.086c2.082,0.468,4.145,1.082,6.184,1.847c1.019,0.426,1.957,0.938,2.808,1.532
		c0.895,0.636,1.446,1.339,1.657,2.105c0.172,0.723-0.039,1.551-0.641,2.488C109.457,70.714,109.371,70.847,109.285,70.976"/>
	<path fill-rule="evenodd" clip-rule="evenodd" fill="#234266" d="M88.438,58.796c1.359-0.085,2.742-0.253,4.144-0.515
		c2.844-0.594,5.738-1.082,8.668-1.465c2.98-0.383,5.551,0.129,7.719,1.531c1.402,1.106,2.531,2.465,3.383,4.078
		c0.378,0.684,0.722,1.387,1.015,2.11c-0.086-1.278-0.359-2.571-0.828-3.891c-0.422-1.359-1.211-2.617-2.359-3.762
		c-1.149-1.152-2.551-1.933-4.207-2.363c-1.657-0.383-3.317-0.488-4.977-0.316c-3.226,0.425-6.18,1.148-8.863,2.164
		c-1.36,0.515-2.653,0.957-3.891,1.344c-0.89,0.296-1.762,0.511-2.613,0.636c-0.379,0.082-0.762,0.129-1.145,0.129
		C85.715,58.816,87.031,58.918,88.438,58.796"/>
	<path fill="#253251" d="M17.564,223.986l0.606-2.674H2.763v-12.129h12.511v-2.582H2.763v-11.5H17.52l-0.651-2.629H0v31.514H17.564
		L17.564,223.986z M34.41,223.986l0.966-2.764H24.19v-29.064l-2.808,0.314v31.514H34.41L34.41,223.986z M37.892,224.637l4.694-23.92
		l9.793,23.92l9.793-23.92l4.694,23.92l2.718-0.605l-6.491-32.613l-10.714,26.256L41.71,191.418l-6.536,32.613L37.892,224.637
		L37.892,224.637z M75.064,223.986v-14.803h18.059v15.207l2.808-0.404v-31.918l-2.808,0.404v14.084H75.064v-14.488l-2.763,0.404
		v31.918L75.064,223.986L75.064,223.986z M101.142,212.441c0,2.545,0.18,4.447,0.539,5.705s0.958,2.344,1.797,3.256
		c0.913,1.02,2.13,1.812,3.65,2.381c1.52,0.57,3.17,0.854,4.953,0.854c1.797,0,3.451-0.283,4.964-0.854
		c1.512-0.568,2.725-1.361,3.639-2.381c0.868-0.928,1.486-2.031,1.853-3.312c0.367-1.279,0.55-3.162,0.55-5.648v-20.373
		l-2.897,0.404v19.924c0,3.504-0.622,5.959-1.864,7.367c-1.243,1.408-3.324,2.111-6.244,2.111c-2.905,0-4.979-0.707-6.222-2.123
		c-1.243-1.414-1.864-3.867-1.864-7.355v-20.328l-2.853,0.404V212.441L101.142,212.441z M131.037,223.986v-28.84h2.201
		c2.291,0,4.077,0.592,5.357,1.773c1.28,1.184,1.92,2.83,1.92,4.941s-0.64,3.76-1.92,4.941c-1.28,1.184-3.066,1.775-5.357,1.775
		l-2.201-0.045l12.129,15.902l2.538-1.596l-9.703-12.061c2.276-0.344,4.095-1.332,5.458-2.965c1.362-1.633,2.044-3.646,2.044-6.043
		c0-2.814-0.914-5.068-2.74-6.76c-1.827-1.691-4.26-2.539-7.3-2.539h-5.188v32.074L131.037,223.986L131.037,223.986z
		 M146.692,219.021c1.138,1.797,2.557,3.184,4.256,4.156c1.699,0.973,3.552,1.459,5.559,1.459c2.905,0,5.301-0.875,7.188-2.627
		s2.83-3.932,2.83-6.537c0-1.977-0.584-3.66-1.752-5.053s-2.913-2.486-5.233-3.279c-0.554-0.18-1.355-0.42-2.403-0.719
		c-1.902-0.555-3.22-1.033-3.953-1.438c-0.974-0.523-1.7-1.168-2.179-1.932c-0.479-0.764-0.719-1.654-0.719-2.674
		c0-1.631,0.618-3.02,1.853-4.166c1.235-1.145,2.736-1.719,4.503-1.719c1.243,0,2.392,0.244,3.448,0.73s2.19,1.307,3.403,2.459
		l1.842-2.133c-1.348-1.318-2.688-2.27-4.021-2.854c-1.333-0.584-2.83-0.875-4.492-0.875c-2.71,0-4.96,0.824-6.75,2.471
		c-1.79,1.646-2.684,3.66-2.684,6.041c0,2.098,0.599,3.816,1.797,5.156c1.198,1.34,3.084,2.398,5.66,3.178
		c0.27,0.09,0.666,0.209,1.19,0.359c5.031,1.512,7.547,3.75,7.547,6.715c0,1.783-0.663,3.258-1.988,4.426s-3.006,1.752-5.042,1.752
		c-1.587,0-3.014-0.383-4.279-1.146c-1.266-0.764-2.37-1.9-3.313-3.414L146.692,219.021L146.692,219.021z M179.418,223.986v-28.795
		h8.041v-2.719h-18.89l-0.696,2.719h8.737v29.199L179.418,223.986L179.418,223.986z M205.742,223.986v-14.533h8.782v-2.672h-8.782
		v-11.59h11.208l-0.674-2.719h-13.297v31.828L205.742,223.986L205.742,223.986z"/>
	<path fill="#253251" d="M229.529,197.348l5.705,11.365h-11.365L229.529,197.348L229.529,197.348z M215.806,224.301l6.671-12.961
		h14.038l6.536,12.961l2.718-0.832l-16.104-31.961l-16.509,32.029L215.806,224.301L215.806,224.301z M247.408,224.637l4.694-23.92
		l9.793,23.92l9.793-23.92l4.694,23.92l2.718-0.605l-6.491-32.613l-10.714,26.256l-10.669-26.256l-6.536,32.613L247.408,224.637
		L247.408,224.637z M284.851,223.986v-31.918l-2.853,0.404v31.918L284.851,223.986L284.851,223.986z M303.583,223.986l0.966-2.764
		h-11.186v-29.064l-2.808,0.314v31.514H303.583L303.583,223.986z"/>
	<polygon fill="#253251" points="327.479,192.855 324.874,191.934 315.935,209.184 305.827,192.158 303.02,192.855 314.475,212.037 
		308.118,223.896 311.016,224.727 327.479,192.855 	"/>
	<path fill="#253251" d="M105.6,234.77c3.304,0,5.931,0.906,7.879,2.717c1.948,1.812,2.922,4.244,2.922,7.299
		c0,3.053-0.971,5.488-2.914,7.305c-1.943,1.818-4.572,2.727-7.887,2.727h-2.871V234.77H105.6L105.6,234.77z M105.275,256.781
		c4.102,0,7.343-1.082,9.724-3.246c2.381-2.166,3.572-5.082,3.572-8.75c0-2.143-0.425-4.061-1.273-5.752s-2.076-3.066-3.683-4.127
		c-1.128-0.752-2.382-1.291-3.76-1.615c-1.379-0.324-3.407-0.486-6.084-0.486h-3.145v23.977H105.275L105.275,256.781z
		 M134.994,256.781l0.462-2.033h-11.724v-9.229h9.519v-1.965h-9.519v-8.75h11.228l-0.495-2H121.63v23.977H134.994L134.994,256.781z
		 M139.865,256.781v-18.936l16.201,19.396v-24.848l-2.103,0.41v18.9l-16.201-19.311v24.848L139.865,256.781L139.865,256.781z
		 M166.713,256.781v-21.908h6.118v-2.068h-14.372l-0.53,2.068h6.648v22.217L166.713,256.781L166.713,256.781z M177.531,256.781
		v-24.285l-2.171,0.309v24.285L177.531,256.781L177.531,256.781z M180.812,253.004c0.865,1.367,1.945,2.422,3.238,3.162
		s2.703,1.111,4.229,1.111c2.21,0,4.033-0.666,5.469-2c1.436-1.332,2.153-2.99,2.153-4.973c0-1.504-0.444-2.785-1.333-3.846
		c-0.889-1.059-2.216-1.891-3.981-2.494c-0.422-0.137-1.031-0.32-1.829-0.547c-1.446-0.422-2.449-0.787-3.008-1.094
		c-0.74-0.4-1.293-0.889-1.657-1.471c-0.365-0.58-0.547-1.258-0.547-2.033c0-1.242,0.47-2.299,1.41-3.17
		c0.939-0.873,2.082-1.309,3.426-1.309c0.945,0,1.82,0.186,2.623,0.557c0.804,0.369,1.667,0.994,2.59,1.871l1.401-1.623
		c-1.025-1.004-2.046-1.727-3.06-2.172c-1.014-0.443-2.153-0.666-3.418-0.666c-2.062,0-3.773,0.627-5.135,1.881
		c-1.362,1.252-2.043,2.785-2.043,4.596c0,1.596,0.456,2.902,1.367,3.922c0.912,1.021,2.348,1.826,4.307,2.42
		c0.205,0.068,0.507,0.158,0.906,0.273c3.828,1.15,5.742,2.854,5.742,5.109c0,1.355-0.504,2.479-1.513,3.367
		s-2.287,1.332-3.837,1.332c-1.207,0-2.293-0.291-3.256-0.871c-0.963-0.582-1.803-1.447-2.521-2.598L180.812,253.004
		L180.812,253.004z M205.712,256.781v-21.908h6.118v-2.068h-14.372l-0.53,2.068h6.648v22.217L205.712,256.781L205.712,256.781z
		 M216.325,256.781v-21.943H218c1.743,0,3.102,0.451,4.076,1.35c0.974,0.9,1.461,2.154,1.461,3.76c0,1.607-0.487,2.861-1.461,3.76
		c-0.975,0.9-2.333,1.352-4.076,1.352l-1.675-0.035l9.229,12.1l1.931-1.213l-7.383-9.178c1.732-0.262,3.116-1.014,4.153-2.256
		c1.036-1.242,1.555-2.773,1.555-4.598c0-2.141-0.694-3.855-2.085-5.143c-1.39-1.289-3.241-1.932-5.554-1.932h-3.948v24.404
		L216.325,256.781L216.325,256.781z"/>
	<polygon fill="#253251" points="246.16,233.096 244.178,232.395 237.376,245.52 229.686,232.564 227.549,233.096 236.265,247.689 
		231.429,256.713 233.633,257.346 246.16,233.096 	"/>
</g>
</svg>
